<mxfile host="app.diagrams.net" agent="Mozilla/5.0 (Windows NT 10.0; Win64; x64) AppleWebKit/537.36 (KHTML, like Gecko) Chrome/132.0.0.0 Safari/537.36" version="26.0.11">
  <diagram name="Page-1" id="HTOZjS7afstR1meojdEO">
    <mxGraphModel dx="2645" dy="870" grid="1" gridSize="10" guides="1" tooltips="1" connect="1" arrows="1" fold="1" page="1" pageScale="1" pageWidth="827" pageHeight="1169" math="0" shadow="0">
      <root>
        <mxCell id="0" />
        <mxCell id="1" parent="0" />
        <mxCell id="BxNZ6aTccqHbWHCgY8v--119" style="edgeStyle=orthogonalEdgeStyle;shape=connector;curved=0;rounded=1;orthogonalLoop=1;jettySize=auto;html=1;entryX=0;entryY=0.5;entryDx=0;entryDy=0;strokeColor=default;strokeWidth=2;align=center;verticalAlign=middle;fontFamily=Helvetica;fontSize=11;fontColor=default;labelBackgroundColor=default;endArrow=none;endFill=0;" parent="1" source="P5rdZ5vx_de0cUmey6Gz-5" target="P5rdZ5vx_de0cUmey6Gz-26" edge="1">
          <mxGeometry relative="1" as="geometry" />
        </mxCell>
        <mxCell id="P5rdZ5vx_de0cUmey6Gz-5" value="&lt;p&gt;&lt;font style=&quot;font-size: 40px;&quot; face=&quot;Times New Roman&quot;&gt;Opera&lt;/font&gt;&lt;/p&gt;" style="rounded=1;whiteSpace=wrap;html=1;shadow=1;fillColor=#d5e8d4;strokeColor=#82b366;" parent="1" vertex="1">
          <mxGeometry x="84" y="979" width="226" height="200" as="geometry" />
        </mxCell>
        <mxCell id="Rmn__w1MElvt7K0cSre3-23" style="edgeStyle=orthogonalEdgeStyle;shape=connector;curved=0;rounded=1;orthogonalLoop=1;jettySize=auto;html=1;entryX=1;entryY=0.5;entryDx=0;entryDy=0;strokeColor=default;strokeWidth=2;align=center;verticalAlign=middle;fontFamily=Helvetica;fontSize=12;fontColor=default;labelBackgroundColor=default;endArrow=none;endFill=0;" parent="1" source="P5rdZ5vx_de0cUmey6Gz-6" target="P5rdZ5vx_de0cUmey6Gz-55" edge="1">
          <mxGeometry relative="1" as="geometry" />
        </mxCell>
        <mxCell id="P5rdZ5vx_de0cUmey6Gz-6" value="&lt;p&gt;&lt;font style=&quot;font-size: 30px;&quot; face=&quot;Times New Roman&quot;&gt;Biglietto&lt;/font&gt;&lt;/p&gt;" style="rounded=1;whiteSpace=wrap;html=1;shadow=1;fillColor=#d5e8d4;strokeColor=#82b366;" parent="1" vertex="1">
          <mxGeometry x="1040" y="1197" width="200" height="130" as="geometry" />
        </mxCell>
        <mxCell id="BxNZ6aTccqHbWHCgY8v--125" style="edgeStyle=orthogonalEdgeStyle;shape=connector;curved=0;rounded=1;orthogonalLoop=1;jettySize=auto;html=1;entryX=0.5;entryY=0;entryDx=0;entryDy=0;strokeColor=default;strokeWidth=2;align=center;verticalAlign=middle;fontFamily=Helvetica;fontSize=11;fontColor=default;labelBackgroundColor=default;endArrow=none;endFill=0;" parent="1" source="P5rdZ5vx_de0cUmey6Gz-8" target="P5rdZ5vx_de0cUmey6Gz-55" edge="1">
          <mxGeometry relative="1" as="geometry" />
        </mxCell>
        <mxCell id="P5rdZ5vx_de0cUmey6Gz-8" value="&lt;p&gt;&lt;font style=&quot;font-size: 30px;&quot; face=&quot;Times New Roman&quot;&gt;Esposizione&lt;/font&gt;&lt;/p&gt;" style="rounded=1;whiteSpace=wrap;html=1;shadow=1;fillColor=#d5e8d4;strokeColor=#82b366;" parent="1" vertex="1">
          <mxGeometry x="652.4200000000001" y="1034" width="320" height="90" as="geometry" />
        </mxCell>
        <mxCell id="P5rdZ5vx_de0cUmey6Gz-9" value="&lt;p&gt;&lt;font style=&quot;font-size: 30px;&quot; face=&quot;Times New Roman&quot;&gt;Persona&lt;/font&gt;&lt;/p&gt;" style="rounded=1;whiteSpace=wrap;html=1;shadow=1;fillColor=#d5e8d4;strokeColor=#82b366;" parent="1" vertex="1">
          <mxGeometry x="966" y="1489" width="200" height="114" as="geometry" />
        </mxCell>
        <mxCell id="P5rdZ5vx_de0cUmey6Gz-10" style="edgeStyle=orthogonalEdgeStyle;shape=connector;curved=0;rounded=1;orthogonalLoop=1;jettySize=auto;html=1;entryX=0;entryY=0.5;entryDx=0;entryDy=0;strokeColor=default;align=center;verticalAlign=middle;fontFamily=Helvetica;fontSize=12;fontColor=default;labelBackgroundColor=default;endArrow=none;endFill=0;strokeWidth=2;" parent="1" source="P5rdZ5vx_de0cUmey6Gz-11" target="P5rdZ5vx_de0cUmey6Gz-23" edge="1">
          <mxGeometry relative="1" as="geometry">
            <mxPoint x="-149.04999999999995" y="935" as="targetPoint" />
          </mxGeometry>
        </mxCell>
        <mxCell id="P5rdZ5vx_de0cUmey6Gz-11" value="&lt;p&gt;&lt;font style=&quot;font-size: 30px;&quot; face=&quot;Times New Roman&quot;&gt;Museo&lt;/font&gt;&lt;/p&gt;" style="rounded=1;whiteSpace=wrap;html=1;shadow=1;fillColor=#d5e8d4;strokeColor=#82b366;" parent="1" vertex="1">
          <mxGeometry x="-660.95" y="1190" width="310.95" height="90" as="geometry" />
        </mxCell>
        <mxCell id="P5rdZ5vx_de0cUmey6Gz-18" style="edgeStyle=orthogonalEdgeStyle;shape=connector;curved=0;rounded=1;orthogonalLoop=1;jettySize=auto;html=1;strokeColor=default;align=center;verticalAlign=middle;fontFamily=Helvetica;fontSize=11;fontColor=default;labelBackgroundColor=default;endArrow=none;endFill=0;exitX=1;exitY=0.5;exitDx=0;exitDy=0;entryX=0;entryY=0.75;entryDx=0;entryDy=0;strokeWidth=2;" parent="1" source="P5rdZ5vx_de0cUmey6Gz-23" target="P5rdZ5vx_de0cUmey6Gz-5" edge="1">
          <mxGeometry relative="1" as="geometry">
            <mxPoint x="-34.08999999999992" y="935.4200000000001" as="sourcePoint" />
            <mxPoint x="40.000000000000185" y="935.4200000000001" as="targetPoint" />
          </mxGeometry>
        </mxCell>
        <mxCell id="P5rdZ5vx_de0cUmey6Gz-19" style="edgeStyle=orthogonalEdgeStyle;shape=connector;curved=0;rounded=1;orthogonalLoop=1;jettySize=auto;html=1;entryX=0.5;entryY=0;entryDx=0;entryDy=0;strokeColor=default;align=center;verticalAlign=middle;fontFamily=Helvetica;fontSize=12;fontColor=default;labelBackgroundColor=default;endArrow=none;endFill=0;strokeWidth=2;" parent="1" source="P5rdZ5vx_de0cUmey6Gz-20" target="P5rdZ5vx_de0cUmey6Gz-44" edge="1">
          <mxGeometry relative="1" as="geometry" />
        </mxCell>
        <mxCell id="P5rdZ5vx_de0cUmey6Gz-20" value="&lt;p&gt;&lt;font face=&quot;Times New Roman&quot; style=&quot;font-size: 30px;&quot;&gt;Evento&lt;/font&gt;&lt;/p&gt;" style="rounded=1;whiteSpace=wrap;html=1;shadow=1;fillColor=#d5e8d4;strokeColor=#82b366;" parent="1" vertex="1">
          <mxGeometry x="384.00000000000006" y="696" width="370" height="90" as="geometry" />
        </mxCell>
        <mxCell id="P5rdZ5vx_de0cUmey6Gz-23" value="&lt;font style=&quot;font-size: 25px;&quot; face=&quot;Garamond&quot;&gt;&lt;b style=&quot;&quot;&gt;Presta&lt;/b&gt;&lt;/font&gt;" style="rhombus;whiteSpace=wrap;html=1;rounded=1;shadow=1;strokeWidth=1;fillColor=#ffe6cc;strokeColor=#d79b00;" parent="1" vertex="1">
          <mxGeometry x="-198.57999999999998" y="1194" width="148.58" height="82" as="geometry" />
        </mxCell>
        <mxCell id="BxNZ6aTccqHbWHCgY8v--166" style="edgeStyle=orthogonalEdgeStyle;shape=connector;curved=0;rounded=1;orthogonalLoop=1;jettySize=auto;html=1;entryX=0;entryY=0.5;entryDx=0;entryDy=0;strokeColor=default;strokeWidth=2;align=center;verticalAlign=middle;fontFamily=Helvetica;fontSize=11;fontColor=default;labelBackgroundColor=default;endArrow=none;endFill=0;" parent="1" source="P5rdZ5vx_de0cUmey6Gz-26" target="P5rdZ5vx_de0cUmey6Gz-8" edge="1">
          <mxGeometry relative="1" as="geometry" />
        </mxCell>
        <mxCell id="P5rdZ5vx_de0cUmey6Gz-26" value="&lt;font style=&quot;font-size: 25px;&quot; face=&quot;Garamond&quot;&gt;&lt;b style=&quot;&quot;&gt;Contiene&lt;/b&gt;&lt;/font&gt;" style="rhombus;whiteSpace=wrap;html=1;rounded=1;shadow=1;strokeWidth=1;fillColor=#ffe6cc;strokeColor=#d79b00;" parent="1" vertex="1">
          <mxGeometry x="414" y="1038" width="148.58" height="82" as="geometry" />
        </mxCell>
        <mxCell id="Rmn__w1MElvt7K0cSre3-11" style="edgeStyle=orthogonalEdgeStyle;shape=connector;curved=0;rounded=1;orthogonalLoop=1;jettySize=auto;html=1;entryX=0.5;entryY=1;entryDx=0;entryDy=0;strokeColor=default;strokeWidth=2;align=center;verticalAlign=middle;fontFamily=Helvetica;fontSize=12;fontColor=default;labelBackgroundColor=default;endArrow=none;endFill=0;exitX=0.5;exitY=0;exitDx=0;exitDy=0;" parent="1" source="oXSpO9kbpZbX1wjSZ2se-28" target="P5rdZ5vx_de0cUmey6Gz-38" edge="1">
          <mxGeometry relative="1" as="geometry">
            <mxPoint x="1720" y="1214" as="sourcePoint" />
          </mxGeometry>
        </mxCell>
        <mxCell id="P5rdZ5vx_de0cUmey6Gz-38" value="&lt;p&gt;&lt;font style=&quot;font-size: 30px;&quot; face=&quot;Times New Roman&quot;&gt;Visita_Guidata&lt;/font&gt;&lt;/p&gt;" style="rounded=1;whiteSpace=wrap;html=1;shadow=1;fillColor=#d5e8d4;strokeColor=#82b366;" parent="1" vertex="1">
          <mxGeometry x="1580" y="984.25" width="280" height="173.5" as="geometry" />
        </mxCell>
        <mxCell id="P5rdZ5vx_de0cUmey6Gz-44" value="&lt;font style=&quot;font-size: 25px;&quot; face=&quot;Garamond&quot;&gt;&lt;b style=&quot;&quot;&gt;Presenta&lt;/b&gt;&lt;/font&gt;" style="rhombus;whiteSpace=wrap;html=1;rounded=1;shadow=1;strokeWidth=1;fillColor=#ffe6cc;strokeColor=#d79b00;" parent="1" vertex="1">
          <mxGeometry x="640.0000000000001" y="889" width="148.58" height="82" as="geometry" />
        </mxCell>
        <mxCell id="P5rdZ5vx_de0cUmey6Gz-55" value="&lt;font style=&quot;font-size: 25px;&quot; face=&quot;Garamond&quot;&gt;&lt;b style=&quot;&quot;&gt;Da accesso a&amp;nbsp;&lt;/b&gt;&lt;/font&gt;" style="rhombus;whiteSpace=wrap;html=1;rounded=1;shadow=1;strokeWidth=1;fillColor=#ffe6cc;strokeColor=#d79b00;" parent="1" vertex="1">
          <mxGeometry x="734.07" y="1210.5" width="156.71" height="103" as="geometry" />
        </mxCell>
        <mxCell id="P5rdZ5vx_de0cUmey6Gz-57" value="" style="edgeStyle=orthogonalEdgeStyle;rounded=1;orthogonalLoop=1;jettySize=auto;html=1;curved=0;strokeColor=default;endArrow=none;endFill=0;strokeWidth=2;" parent="1" source="P5rdZ5vx_de0cUmey6Gz-58" edge="1">
          <mxGeometry relative="1" as="geometry">
            <mxPoint x="1065.4700000000005" y="1326" as="targetPoint" />
          </mxGeometry>
        </mxCell>
        <mxCell id="iu3xrcg8m6JFRTdjgd5U-8" style="edgeStyle=orthogonalEdgeStyle;shape=connector;curved=0;rounded=1;orthogonalLoop=1;jettySize=auto;html=1;entryX=0.5;entryY=0;entryDx=0;entryDy=0;strokeColor=default;strokeWidth=2;align=center;verticalAlign=middle;fontFamily=Helvetica;fontSize=12;fontColor=default;labelBackgroundColor=default;endArrow=none;endFill=0;" parent="1" source="P5rdZ5vx_de0cUmey6Gz-58" target="P5rdZ5vx_de0cUmey6Gz-9" edge="1">
          <mxGeometry relative="1" as="geometry" />
        </mxCell>
        <mxCell id="P5rdZ5vx_de0cUmey6Gz-58" value="&lt;font style=&quot;font-size: 25px;&quot; face=&quot;Garamond&quot;&gt;&lt;b style=&quot;&quot;&gt;Acquista&lt;/b&gt;&lt;/font&gt;" style="rhombus;whiteSpace=wrap;html=1;rounded=1;shadow=1;strokeWidth=1;fillColor=#ffe6cc;strokeColor=#d79b00;" parent="1" vertex="1">
          <mxGeometry x="991.1800000000001" y="1367" width="148.58" height="82" as="geometry" />
        </mxCell>
        <mxCell id="P5rdZ5vx_de0cUmey6Gz-60" value="" style="edgeStyle=orthogonalEdgeStyle;shape=connector;curved=0;rounded=1;orthogonalLoop=1;jettySize=auto;html=1;strokeColor=default;strokeWidth=2;align=center;verticalAlign=middle;fontFamily=Helvetica;fontSize=12;fontColor=default;labelBackgroundColor=default;endArrow=none;endFill=0;exitX=0.5;exitY=1;exitDx=0;exitDy=0;" parent="1" source="P5rdZ5vx_de0cUmey6Gz-61" target="P5rdZ5vx_de0cUmey6Gz-70" edge="1">
          <mxGeometry relative="1" as="geometry" />
        </mxCell>
        <mxCell id="P5rdZ5vx_de0cUmey6Gz-61" value="&lt;font style=&quot;font-size: 25px;&quot; face=&quot;Garamond&quot;&gt;&lt;b style=&quot;&quot;&gt;Scrive&lt;/b&gt;&lt;/font&gt;" style="rhombus;whiteSpace=wrap;html=1;rounded=1;shadow=1;strokeWidth=1;fillColor=#ffe6cc;strokeColor=#d79b00;" parent="1" vertex="1">
          <mxGeometry x="991.71" y="1664.25" width="148.58" height="82" as="geometry" />
        </mxCell>
        <mxCell id="P5rdZ5vx_de0cUmey6Gz-70" value="&lt;p&gt;&lt;font style=&quot;font-size: 30px;&quot; face=&quot;Times New Roman&quot;&gt;Feedback&lt;/font&gt;&lt;/p&gt;" style="rounded=1;whiteSpace=wrap;html=1;shadow=1;fillColor=#d5e8d4;strokeColor=#82b366;" parent="1" vertex="1">
          <mxGeometry x="966" y="1810.72" width="200" height="90" as="geometry" />
        </mxCell>
        <mxCell id="P5rdZ5vx_de0cUmey6Gz-245" value="" style="endArrow=none;html=1;rounded=0;" parent="1" edge="1">
          <mxGeometry width="50" height="50" relative="1" as="geometry">
            <mxPoint x="1263.18" y="1478" as="sourcePoint" />
            <mxPoint x="1263.89" y="1477.9999999999995" as="targetPoint" />
          </mxGeometry>
        </mxCell>
        <mxCell id="BxNZ6aTccqHbWHCgY8v--1" value="" style="endArrow=none;html=1;rounded=0;entryX=0.078;entryY=1.035;entryDx=0;entryDy=0;entryPerimeter=0;exitX=0.5;exitY=0;exitDx=0;exitDy=0;endSize=7;strokeWidth=2;" parent="1" source="BxNZ6aTccqHbWHCgY8v--2" edge="1">
          <mxGeometry width="50" height="50" relative="1" as="geometry">
            <mxPoint x="-419.9699999999999" y="1309.85" as="sourcePoint" />
            <mxPoint x="-420.3699999999998" y="1280" as="targetPoint" />
          </mxGeometry>
        </mxCell>
        <mxCell id="BxNZ6aTccqHbWHCgY8v--2" value="" style="ellipse;whiteSpace=wrap;html=1;aspect=fixed;strokeWidth=2;" parent="1" vertex="1">
          <mxGeometry x="-424.9699999999999" y="1326" width="10" height="10" as="geometry" />
        </mxCell>
        <mxCell id="BxNZ6aTccqHbWHCgY8v--5" value="&lt;div&gt;&lt;span style=&quot;font-size: 16px; background-color: initial;&quot;&gt;&lt;font face=&quot;Times New Roman&quot;&gt;Telefono&lt;/font&gt;&lt;/span&gt;&lt;/div&gt;&lt;div&gt;&lt;font face=&quot;Times New Roman&quot; style=&quot;font-size: 16px;&quot;&gt;E-mail&lt;/font&gt;&lt;/div&gt;&lt;div&gt;&lt;font face=&quot;Times New Roman&quot; style=&quot;font-size: 16px;&quot;&gt;Città&lt;/font&gt;&lt;/div&gt;" style="rounded=1;whiteSpace=wrap;html=1;dashed=1;fillColor=#f5f5f5;fontColor=#333333;strokeColor=#666666;align=left;" parent="1" vertex="1">
          <mxGeometry x="-409.97" y="1292" width="66.97" height="89" as="geometry" />
        </mxCell>
        <mxCell id="BxNZ6aTccqHbWHCgY8v--9" value="" style="endArrow=none;html=1;rounded=0;entryX=0.078;entryY=1.035;entryDx=0;entryDy=0;entryPerimeter=0;exitX=0.5;exitY=0;exitDx=0;exitDy=0;strokeColor=#009900;strokeWidth=2;" parent="1" source="BxNZ6aTccqHbWHCgY8v--10" edge="1">
          <mxGeometry width="50" height="50" relative="1" as="geometry">
            <mxPoint x="-619.05" y="1309.85" as="sourcePoint" />
            <mxPoint x="-619.4499999999998" y="1280" as="targetPoint" />
          </mxGeometry>
        </mxCell>
        <mxCell id="BxNZ6aTccqHbWHCgY8v--10" value="" style="ellipse;whiteSpace=wrap;html=1;aspect=fixed;strokeColor=#009900;gradientColor=none;fillColor=none;strokeWidth=2;" parent="1" vertex="1">
          <mxGeometry x="-624.05" y="1326" width="10" height="10" as="geometry" />
        </mxCell>
        <mxCell id="BxNZ6aTccqHbWHCgY8v--12" value="&lt;font style=&quot;color: rgb(51, 51, 51); text-align: left; font-size: 16px;&quot; face=&quot;Times New Roman&quot;&gt;&lt;b style=&quot;&quot;&gt;Nome&lt;/b&gt;&lt;/font&gt;" style="text;html=1;align=center;verticalAlign=middle;whiteSpace=wrap;rounded=0;" parent="1" vertex="1">
          <mxGeometry x="-618.05" y="1316" width="60" height="30" as="geometry" />
        </mxCell>
        <mxCell id="BxNZ6aTccqHbWHCgY8v--13" value="" style="endArrow=none;html=1;rounded=0;entryX=0.078;entryY=1.035;entryDx=0;entryDy=0;entryPerimeter=0;exitX=0.5;exitY=0;exitDx=0;exitDy=0;strokeColor=#009900;strokeWidth=2;" parent="1" source="BxNZ6aTccqHbWHCgY8v--14" edge="1">
          <mxGeometry width="50" height="50" relative="1" as="geometry">
            <mxPoint x="-546" y="1309.85" as="sourcePoint" />
            <mxPoint x="-546.3999999999999" y="1280" as="targetPoint" />
          </mxGeometry>
        </mxCell>
        <mxCell id="BxNZ6aTccqHbWHCgY8v--14" value="" style="ellipse;whiteSpace=wrap;html=1;aspect=fixed;strokeColor=#009900;gradientColor=none;fillColor=none;strokeWidth=2;" parent="1" vertex="1">
          <mxGeometry x="-551" y="1326" width="10" height="10" as="geometry" />
        </mxCell>
        <mxCell id="BxNZ6aTccqHbWHCgY8v--15" value="&lt;font style=&quot;color: rgb(51, 51, 51); text-align: left; font-size: 16px;&quot; face=&quot;Times New Roman&quot;&gt;&lt;b style=&quot;&quot;&gt;Indirizzo&lt;/b&gt;&lt;/font&gt;" style="text;html=1;align=center;verticalAlign=middle;whiteSpace=wrap;rounded=0;" parent="1" vertex="1">
          <mxGeometry x="-536" y="1316" width="60" height="30" as="geometry" />
        </mxCell>
        <mxCell id="BxNZ6aTccqHbWHCgY8v--16" value="" style="endArrow=none;html=1;rounded=0;strokeColor=#009900;strokeWidth=2;" parent="1" edge="1">
          <mxGeometry width="50" height="50" relative="1" as="geometry">
            <mxPoint x="-636.05" y="1301" as="sourcePoint" />
            <mxPoint x="-521" y="1301" as="targetPoint" />
          </mxGeometry>
        </mxCell>
        <mxCell id="BxNZ6aTccqHbWHCgY8v--17" value="" style="ellipse;whiteSpace=wrap;html=1;aspect=fixed;strokeColor=#009900;gradientColor=none;fillColor=#336600;strokeWidth=2;" parent="1" vertex="1">
          <mxGeometry x="-524" y="1296" width="10" height="10" as="geometry" />
        </mxCell>
        <mxCell id="BxNZ6aTccqHbWHCgY8v--61" style="edgeStyle=orthogonalEdgeStyle;shape=connector;curved=0;rounded=1;orthogonalLoop=1;jettySize=auto;html=1;entryX=1;entryY=0.5;entryDx=0;entryDy=0;strokeColor=default;strokeWidth=2;align=center;verticalAlign=middle;fontFamily=Helvetica;fontSize=11;fontColor=default;labelBackgroundColor=default;endArrow=none;endFill=0;" parent="1" source="BxNZ6aTccqHbWHCgY8v--38" target="BxNZ6aTccqHbWHCgY8v--41" edge="1">
          <mxGeometry relative="1" as="geometry" />
        </mxCell>
        <mxCell id="BxNZ6aTccqHbWHCgY8v--38" value="&lt;font style=&quot;font-size: 25px;&quot; face=&quot;Garamond&quot;&gt;&lt;b style=&quot;&quot;&gt;Realizza&lt;/b&gt;&lt;/font&gt;" style="rhombus;whiteSpace=wrap;html=1;rounded=1;shadow=1;strokeWidth=1;fillColor=#ffe6cc;strokeColor=#d79b00;" parent="1" vertex="1">
          <mxGeometry x="-189.99999999999997" y="918.9999999999999" width="148.58" height="82" as="geometry" />
        </mxCell>
        <mxCell id="BxNZ6aTccqHbWHCgY8v--40" style="edgeStyle=orthogonalEdgeStyle;shape=connector;curved=0;rounded=1;orthogonalLoop=1;jettySize=auto;html=1;entryX=-0.001;entryY=0.389;entryDx=0;entryDy=0;entryPerimeter=0;strokeColor=default;strokeWidth=2;align=center;verticalAlign=middle;fontFamily=Helvetica;fontSize=11;fontColor=default;labelBackgroundColor=default;endArrow=none;endFill=0;" parent="1" source="BxNZ6aTccqHbWHCgY8v--38" target="P5rdZ5vx_de0cUmey6Gz-5" edge="1">
          <mxGeometry relative="1" as="geometry" />
        </mxCell>
        <mxCell id="BxNZ6aTccqHbWHCgY8v--59" style="edgeStyle=orthogonalEdgeStyle;shape=connector;curved=0;rounded=1;orthogonalLoop=1;jettySize=auto;html=1;strokeColor=default;strokeWidth=2;align=center;verticalAlign=middle;fontFamily=Helvetica;fontSize=11;fontColor=default;labelBackgroundColor=default;endArrow=none;endFill=0;" parent="1" source="BxNZ6aTccqHbWHCgY8v--41" edge="1">
          <mxGeometry relative="1" as="geometry">
            <mxPoint x="-570" y="960" as="targetPoint" />
          </mxGeometry>
        </mxCell>
        <mxCell id="BxNZ6aTccqHbWHCgY8v--41" value="&lt;p&gt;&lt;font style=&quot;font-size: 30px;&quot; face=&quot;Times New Roman&quot;&gt;Artista&lt;/font&gt;&lt;/p&gt;" style="rounded=1;whiteSpace=wrap;html=1;shadow=1;fillColor=#d5e8d4;strokeColor=#82b366;" parent="1" vertex="1">
          <mxGeometry x="-523" y="914.9999999999999" width="190" height="90" as="geometry" />
        </mxCell>
        <mxCell id="BxNZ6aTccqHbWHCgY8v--42" value="" style="endArrow=none;html=1;rounded=0;entryX=0.078;entryY=1.035;entryDx=0;entryDy=0;entryPerimeter=0;exitX=0.5;exitY=0;exitDx=0;exitDy=0;strokeColor=#009900;strokeWidth=2;" parent="1" source="BxNZ6aTccqHbWHCgY8v--43" edge="1">
          <mxGeometry width="50" height="50" relative="1" as="geometry">
            <mxPoint x="-511.41999999999996" y="1034.85" as="sourcePoint" />
            <mxPoint x="-511.8199999999998" y="1004.9999999999999" as="targetPoint" />
          </mxGeometry>
        </mxCell>
        <mxCell id="BxNZ6aTccqHbWHCgY8v--43" value="" style="ellipse;whiteSpace=wrap;html=1;aspect=fixed;strokeColor=#009900;gradientColor=none;fillColor=none;strokeWidth=2;" parent="1" vertex="1">
          <mxGeometry x="-516.42" y="1051" width="10" height="10" as="geometry" />
        </mxCell>
        <mxCell id="BxNZ6aTccqHbWHCgY8v--44" value="&lt;font style=&quot;color: rgb(51, 51, 51); text-align: left; font-size: 16px;&quot; face=&quot;Times New Roman&quot;&gt;&lt;b style=&quot;&quot;&gt;Nome&lt;/b&gt;&lt;/font&gt;" style="text;html=1;align=center;verticalAlign=middle;whiteSpace=wrap;rounded=0;" parent="1" vertex="1">
          <mxGeometry x="-510.41999999999996" y="1041" width="60" height="30" as="geometry" />
        </mxCell>
        <mxCell id="BxNZ6aTccqHbWHCgY8v--45" value="" style="endArrow=none;html=1;rounded=0;entryX=0.078;entryY=1.035;entryDx=0;entryDy=0;entryPerimeter=0;exitX=0.5;exitY=0;exitDx=0;exitDy=0;strokeColor=#009900;strokeWidth=2;" parent="1" source="BxNZ6aTccqHbWHCgY8v--46" edge="1">
          <mxGeometry width="50" height="50" relative="1" as="geometry">
            <mxPoint x="-445.37" y="1034.85" as="sourcePoint" />
            <mxPoint x="-445.76999999999987" y="1004.9999999999999" as="targetPoint" />
          </mxGeometry>
        </mxCell>
        <mxCell id="BxNZ6aTccqHbWHCgY8v--46" value="" style="ellipse;whiteSpace=wrap;html=1;aspect=fixed;strokeColor=#009900;gradientColor=none;fillColor=none;strokeWidth=2;" parent="1" vertex="1">
          <mxGeometry x="-450.37" y="1051" width="10" height="10" as="geometry" />
        </mxCell>
        <mxCell id="BxNZ6aTccqHbWHCgY8v--47" value="&lt;font style=&quot;color: rgb(51, 51, 51); text-align: left; font-size: 16px;&quot; face=&quot;Times New Roman&quot;&gt;&lt;b style=&quot;&quot;&gt;Cognome&lt;/b&gt;&lt;/font&gt;" style="text;html=1;align=center;verticalAlign=middle;whiteSpace=wrap;rounded=0;" parent="1" vertex="1">
          <mxGeometry x="-435.37" y="1041" width="60" height="30" as="geometry" />
        </mxCell>
        <mxCell id="BxNZ6aTccqHbWHCgY8v--48" value="" style="endArrow=none;html=1;rounded=0;strokeColor=#009900;entryX=0;entryY=0.5;entryDx=0;entryDy=0;strokeWidth=2;" parent="1" target="BxNZ6aTccqHbWHCgY8v--49" edge="1">
          <mxGeometry width="50" height="50" relative="1" as="geometry">
            <mxPoint x="-530" y="1026" as="sourcePoint" />
            <mxPoint x="-401.37" y="1026" as="targetPoint" />
          </mxGeometry>
        </mxCell>
        <mxCell id="BxNZ6aTccqHbWHCgY8v--49" value="" style="ellipse;whiteSpace=wrap;html=1;aspect=fixed;strokeColor=#009900;gradientColor=none;fillColor=#336600;strokeWidth=2;" parent="1" vertex="1">
          <mxGeometry x="-321" y="1020.9999999999999" width="10" height="10" as="geometry" />
        </mxCell>
        <mxCell id="BxNZ6aTccqHbWHCgY8v--50" value="" style="endArrow=none;html=1;rounded=0;entryX=0.078;entryY=1.035;entryDx=0;entryDy=0;entryPerimeter=0;exitX=0.5;exitY=0;exitDx=0;exitDy=0;strokeColor=#009900;strokeWidth=2;" parent="1" source="BxNZ6aTccqHbWHCgY8v--51" edge="1">
          <mxGeometry width="50" height="50" relative="1" as="geometry">
            <mxPoint x="-357" y="1034.85" as="sourcePoint" />
            <mxPoint x="-357.39999999999986" y="1004.9999999999999" as="targetPoint" />
          </mxGeometry>
        </mxCell>
        <mxCell id="BxNZ6aTccqHbWHCgY8v--51" value="" style="ellipse;whiteSpace=wrap;html=1;aspect=fixed;strokeColor=#009900;gradientColor=none;fillColor=none;strokeWidth=2;" parent="1" vertex="1">
          <mxGeometry x="-362" y="1051" width="10" height="10" as="geometry" />
        </mxCell>
        <mxCell id="BxNZ6aTccqHbWHCgY8v--52" value="&lt;font style=&quot;color: rgb(51, 51, 51); text-align: left; font-size: 16px;&quot; face=&quot;Times New Roman&quot;&gt;&lt;b style=&quot;&quot;&gt;Data_Nascita&lt;/b&gt;&lt;/font&gt;" style="text;html=1;align=center;verticalAlign=middle;whiteSpace=wrap;rounded=0;" parent="1" vertex="1">
          <mxGeometry x="-334" y="1041" width="60" height="30" as="geometry" />
        </mxCell>
        <mxCell id="BxNZ6aTccqHbWHCgY8v--56" value="" style="ellipse;whiteSpace=wrap;html=1;aspect=fixed;strokeWidth=2;" parent="1" vertex="1">
          <mxGeometry x="-580" y="954.9999999999999" width="10" height="10" as="geometry" />
        </mxCell>
        <mxCell id="BxNZ6aTccqHbWHCgY8v--60" value="&lt;div&gt;&lt;font face=&quot;Times New Roman&quot;&gt;&lt;span style=&quot;font-size: 16px;&quot;&gt;&lt;br&gt;&lt;/span&gt;&lt;/font&gt;&lt;/div&gt;&lt;div&gt;&lt;font face=&quot;Times New Roman&quot;&gt;&lt;span style=&quot;font-size: 16px;&quot;&gt;Nazionalità&lt;/span&gt;&lt;/font&gt;&lt;/div&gt;&lt;div&gt;&lt;font face=&quot;Times New Roman&quot;&gt;&lt;span style=&quot;font-size: 16px;&quot;&gt;Data_morte&lt;/span&gt;&lt;/font&gt;&lt;/div&gt;&lt;div&gt;&lt;font face=&quot;Times New Roman&quot;&gt;&lt;span style=&quot;font-size: 16px;&quot;&gt;Biografia&lt;/span&gt;&lt;/font&gt;&lt;/div&gt;&lt;div&gt;&lt;font face=&quot;Times New Roman&quot;&gt;&lt;span style=&quot;font-size: 16px;&quot;&gt;&lt;br&gt;&lt;/span&gt;&lt;/font&gt;&lt;/div&gt;" style="rounded=1;whiteSpace=wrap;html=1;dashed=1;fillColor=#f5f5f5;fontColor=#333333;strokeColor=#666666;align=left;" parent="1" vertex="1">
          <mxGeometry x="-680" y="913.28" width="93.48" height="91.72" as="geometry" />
        </mxCell>
        <mxCell id="BxNZ6aTccqHbWHCgY8v--72" value="" style="group;rotation=90;" parent="1" vertex="1" connectable="0">
          <mxGeometry x="93" y="990" width="188.15" height="560.0285714285715" as="geometry" />
        </mxCell>
        <mxCell id="BxNZ6aTccqHbWHCgY8v--64" style="edgeStyle=orthogonalEdgeStyle;shape=connector;curved=0;rounded=0;orthogonalLoop=1;jettySize=auto;html=1;entryX=1;entryY=0.5;entryDx=0;entryDy=0;strokeColor=default;align=center;verticalAlign=middle;fontFamily=Helvetica;fontSize=12;fontColor=default;labelBackgroundColor=default;endArrow=none;endFill=0;strokeWidth=2;endSize=6;startFill=1;exitX=0.5;exitY=0;exitDx=0;exitDy=0;" parent="BxNZ6aTccqHbWHCgY8v--72" source="BxNZ6aTccqHbWHCgY8v--82" edge="1">
          <mxGeometry relative="1" as="geometry">
            <mxPoint x="102" y="376" as="sourcePoint" />
            <mxPoint x="102.57500000000027" y="326.32499999999936" as="targetPoint" />
          </mxGeometry>
        </mxCell>
        <mxCell id="BxNZ6aTccqHbWHCgY8v--67" value="" style="rounded=0;whiteSpace=wrap;html=1;shadow=1;strokeColor=default;align=center;verticalAlign=middle;fontFamily=Helvetica;fontSize=12;fontColor=default;fillColor=default;rotation=90;" parent="BxNZ6aTccqHbWHCgY8v--72" vertex="1">
          <mxGeometry x="52" y="263" width="107.15" height="19.5" as="geometry" />
        </mxCell>
        <mxCell id="BxNZ6aTccqHbWHCgY8v--69" value="" style="triangle;whiteSpace=wrap;html=1;rounded=1;shadow=1;strokeColor=default;align=center;verticalAlign=middle;fontFamily=Helvetica;fontSize=12;fontColor=default;fillColor=#000000;rotation=-90;" parent="BxNZ6aTccqHbWHCgY8v--72" vertex="1">
          <mxGeometry x="89" y="179" width="31.9" height="50" as="geometry" />
        </mxCell>
        <mxCell id="BxNZ6aTccqHbWHCgY8v--90" style="edgeStyle=orthogonalEdgeStyle;shape=connector;curved=0;rounded=0;orthogonalLoop=1;jettySize=auto;html=1;strokeColor=default;strokeWidth=2;align=center;verticalAlign=middle;fontFamily=Helvetica;fontSize=12;fontColor=default;labelBackgroundColor=default;startFill=1;endArrow=none;endFill=0;endSize=6;exitX=0.5;exitY=0;exitDx=0;exitDy=0;entryX=1.002;entryY=0.881;entryDx=0;entryDy=0;entryPerimeter=0;" parent="1" target="BxNZ6aTccqHbWHCgY8v--67" edge="1">
          <mxGeometry relative="1" as="geometry">
            <mxPoint x="-70" y="1432" as="sourcePoint" />
            <mxPoint x="191" y="1322" as="targetPoint" />
            <Array as="points">
              <mxPoint x="-69" y="1432" />
              <mxPoint x="-69" y="1374" />
              <mxPoint x="191" y="1374" />
            </Array>
          </mxGeometry>
        </mxCell>
        <mxCell id="BxNZ6aTccqHbWHCgY8v--80" value="&lt;p&gt;&lt;font style=&quot;font-size: 30px;&quot; face=&quot;Times New Roman&quot;&gt;Scultura&lt;/font&gt;&lt;/p&gt;" style="rounded=1;whiteSpace=wrap;html=1;shadow=1;fillColor=#d5e8d4;strokeColor=#82b366;" parent="1" vertex="1">
          <mxGeometry x="-162" y="1432" width="190" height="90" as="geometry" />
        </mxCell>
        <mxCell id="BxNZ6aTccqHbWHCgY8v--81" value="&lt;p&gt;&lt;font style=&quot;font-size: 30px;&quot; face=&quot;Times New Roman&quot;&gt;Quadro&lt;/font&gt;&lt;/p&gt;" style="rounded=1;whiteSpace=wrap;html=1;shadow=1;fillColor=#d5e8d4;strokeColor=#82b366;" parent="1" vertex="1">
          <mxGeometry x="375" y="1432" width="190" height="90" as="geometry" />
        </mxCell>
        <mxCell id="BxNZ6aTccqHbWHCgY8v--82" value="&lt;p&gt;&lt;font style=&quot;font-size: 30px;&quot; face=&quot;Times New Roman&quot;&gt;Installazione&lt;/font&gt;&lt;/p&gt;" style="rounded=1;whiteSpace=wrap;html=1;shadow=1;fillColor=#d5e8d4;strokeColor=#82b366;" parent="1" vertex="1">
          <mxGeometry x="-21" y="1562" width="190" height="90" as="geometry" />
        </mxCell>
        <mxCell id="BxNZ6aTccqHbWHCgY8v--83" value="&lt;p&gt;&lt;font style=&quot;font-size: 30px;&quot; face=&quot;Times New Roman&quot;&gt;Fotografia&lt;/font&gt;&lt;/p&gt;" style="rounded=1;whiteSpace=wrap;html=1;shadow=1;fillColor=#d5e8d4;strokeColor=#82b366;" parent="1" vertex="1">
          <mxGeometry x="215" y="1562" width="190" height="90" as="geometry" />
        </mxCell>
        <mxCell id="BxNZ6aTccqHbWHCgY8v--86" style="edgeStyle=orthogonalEdgeStyle;shape=connector;curved=0;rounded=0;orthogonalLoop=1;jettySize=auto;html=1;entryX=1;entryY=0.5;entryDx=0;entryDy=0;strokeColor=default;align=center;verticalAlign=middle;fontFamily=Helvetica;fontSize=12;fontColor=default;labelBackgroundColor=default;endArrow=none;endFill=0;strokeWidth=2;endSize=6;startFill=1;exitX=0.5;exitY=0;exitDx=0;exitDy=0;" parent="1" source="BxNZ6aTccqHbWHCgY8v--83" edge="1">
          <mxGeometry relative="1" as="geometry">
            <mxPoint x="202" y="1366" as="sourcePoint" />
            <mxPoint x="202.57500000000027" y="1316.3249999999994" as="targetPoint" />
          </mxGeometry>
        </mxCell>
        <mxCell id="BxNZ6aTccqHbWHCgY8v--92" style="edgeStyle=orthogonalEdgeStyle;shape=connector;curved=0;rounded=0;orthogonalLoop=1;jettySize=auto;html=1;strokeColor=default;strokeWidth=2;align=center;verticalAlign=middle;fontFamily=Helvetica;fontSize=12;fontColor=default;labelBackgroundColor=default;startFill=1;endArrow=none;endFill=0;endSize=6;exitX=0.5;exitY=0;exitDx=0;exitDy=0;" parent="1" edge="1">
          <mxGeometry relative="1" as="geometry">
            <mxPoint x="207.00000000000023" y="1317" as="sourcePoint" />
            <mxPoint x="466" y="1432" as="targetPoint" />
            <Array as="points">
              <mxPoint x="207" y="1374" />
              <mxPoint x="466" y="1374" />
              <mxPoint x="466" y="1432" />
            </Array>
          </mxGeometry>
        </mxCell>
        <mxCell id="BxNZ6aTccqHbWHCgY8v--95" style="edgeStyle=orthogonalEdgeStyle;shape=connector;curved=0;rounded=1;orthogonalLoop=1;jettySize=auto;html=1;strokeColor=default;strokeWidth=2;align=center;verticalAlign=middle;fontFamily=Helvetica;fontSize=11;fontColor=default;labelBackgroundColor=default;endArrow=none;endFill=0;" parent="1" edge="1">
          <mxGeometry relative="1" as="geometry">
            <mxPoint x="-209" y="1477" as="targetPoint" />
            <mxPoint x="-162" y="1477" as="sourcePoint" />
          </mxGeometry>
        </mxCell>
        <mxCell id="BxNZ6aTccqHbWHCgY8v--96" value="" style="ellipse;whiteSpace=wrap;html=1;aspect=fixed;strokeWidth=2;" parent="1" vertex="1">
          <mxGeometry x="-219" y="1472" width="10" height="10" as="geometry" />
        </mxCell>
        <mxCell id="BxNZ6aTccqHbWHCgY8v--97" value="&lt;div&gt;&lt;span style=&quot;font-size: 16px; font-family: &amp;quot;Times New Roman&amp;quot;; background-color: transparent; color: light-dark(rgb(51, 51, 51), rgb(193, 193, 193));&quot;&gt;Peso&lt;/span&gt;&lt;/div&gt;&lt;div&gt;&lt;div&gt;&lt;font face=&quot;Times New Roman&quot;&gt;&lt;span style=&quot;font-size: 16px;&quot;&gt;Dimensioni&lt;/span&gt;&lt;/font&gt;&lt;/div&gt;&lt;div&gt;&lt;font face=&quot;Times New Roman&quot;&gt;&lt;span style=&quot;font-size: 16px;&quot;&gt;Medium&amp;nbsp;&lt;/span&gt;&lt;/font&gt;&lt;/div&gt;&lt;/div&gt;" style="rounded=1;whiteSpace=wrap;html=1;dashed=1;fillColor=#f5f5f5;fontColor=#333333;strokeColor=#666666;align=left;" parent="1" vertex="1">
          <mxGeometry x="-334" y="1434" width="110" height="80" as="geometry" />
        </mxCell>
        <mxCell id="BxNZ6aTccqHbWHCgY8v--99" style="edgeStyle=orthogonalEdgeStyle;shape=connector;curved=0;rounded=1;orthogonalLoop=1;jettySize=auto;html=1;strokeColor=default;strokeWidth=2;align=center;verticalAlign=middle;fontFamily=Helvetica;fontSize=11;fontColor=default;labelBackgroundColor=default;endArrow=none;endFill=0;" parent="1" edge="1">
          <mxGeometry relative="1" as="geometry">
            <mxPoint x="-69" y="1609.72" as="targetPoint" />
            <mxPoint x="-22" y="1609.72" as="sourcePoint" />
          </mxGeometry>
        </mxCell>
        <mxCell id="BxNZ6aTccqHbWHCgY8v--100" value="" style="ellipse;whiteSpace=wrap;html=1;aspect=fixed;strokeWidth=2;" parent="1" vertex="1">
          <mxGeometry x="-79" y="1604.72" width="10" height="10" as="geometry" />
        </mxCell>
        <mxCell id="BxNZ6aTccqHbWHCgY8v--101" value="&lt;div&gt;&lt;span style=&quot;font-family: &amp;quot;Times New Roman&amp;quot;; font-size: 16px; background-color: transparent; color: light-dark(rgb(51, 51, 51), rgb(193, 193, 193));&quot;&gt;Dimensioni&amp;nbsp;&lt;/span&gt;&lt;/div&gt;&lt;div&gt;&lt;span style=&quot;font-size: 16px; font-family: &amp;quot;Times New Roman&amp;quot;; background-color: transparent; color: light-dark(rgb(51, 51, 51), rgb(193, 193, 193));&quot;&gt;Medium&lt;/span&gt;&lt;/div&gt;" style="rounded=1;whiteSpace=wrap;html=1;dashed=1;fillColor=#f5f5f5;fontColor=#333333;strokeColor=#666666;align=left;" parent="1" vertex="1">
          <mxGeometry x="-198.57999999999998" y="1574.72" width="110" height="70" as="geometry" />
        </mxCell>
        <mxCell id="BxNZ6aTccqHbWHCgY8v--107" value="" style="group;flipH=1;" parent="1" vertex="1" connectable="0">
          <mxGeometry x="405" y="1564" width="196" height="90" as="geometry" />
        </mxCell>
        <mxCell id="BxNZ6aTccqHbWHCgY8v--104" style="edgeStyle=orthogonalEdgeStyle;shape=connector;curved=0;rounded=1;orthogonalLoop=1;jettySize=auto;html=1;strokeColor=default;strokeWidth=2;align=center;verticalAlign=middle;fontFamily=Helvetica;fontSize=11;fontColor=default;labelBackgroundColor=default;endArrow=none;endFill=0;" parent="BxNZ6aTccqHbWHCgY8v--107" edge="1">
          <mxGeometry relative="1" as="geometry">
            <mxPoint x="47" y="45" as="targetPoint" />
            <mxPoint y="45" as="sourcePoint" />
          </mxGeometry>
        </mxCell>
        <mxCell id="BxNZ6aTccqHbWHCgY8v--105" value="" style="ellipse;whiteSpace=wrap;html=1;aspect=fixed;strokeWidth=2;" parent="BxNZ6aTccqHbWHCgY8v--107" vertex="1">
          <mxGeometry x="47" y="40" width="10" height="10" as="geometry" />
        </mxCell>
        <mxCell id="BxNZ6aTccqHbWHCgY8v--106" value="&lt;div&gt;&lt;span style=&quot;font-size: 16px; font-family: &amp;quot;Times New Roman&amp;quot;; background-color: transparent; color: light-dark(rgb(51, 51, 51), rgb(193, 193, 193));&quot;&gt;&lt;br&gt;&lt;/span&gt;&lt;/div&gt;&lt;div&gt;&lt;span style=&quot;font-size: 16px; font-family: &amp;quot;Times New Roman&amp;quot;; background-color: transparent; color: light-dark(rgb(51, 51, 51), rgb(193, 193, 193));&quot;&gt;Dimensioni&lt;/span&gt;&lt;/div&gt;&lt;div&gt;&lt;div&gt;&lt;span style=&quot;font-family: &amp;quot;Times New Roman&amp;quot;; font-size: 16px; background-color: initial;&quot;&gt;Medium&lt;/span&gt;&lt;/div&gt;&lt;/div&gt;&lt;div&gt;&lt;span style=&quot;font-family: &amp;quot;Times New Roman&amp;quot;; font-size: 16px; background-color: initial;&quot;&gt;&lt;br&gt;&lt;/span&gt;&lt;/div&gt;" style="rounded=1;whiteSpace=wrap;html=1;dashed=1;fillColor=#f5f5f5;fontColor=#333333;strokeColor=#666666;align=left;" parent="BxNZ6aTccqHbWHCgY8v--107" vertex="1">
          <mxGeometry x="62.52" y="10" width="97.48" height="70" as="geometry" />
        </mxCell>
        <mxCell id="BxNZ6aTccqHbWHCgY8v--108" value="" style="group;flipH=1;" parent="1" vertex="1" connectable="0">
          <mxGeometry x="565" y="1432" width="196" height="90" as="geometry" />
        </mxCell>
        <mxCell id="BxNZ6aTccqHbWHCgY8v--111" value="&lt;div&gt;&lt;span style=&quot;background-color: transparent; color: light-dark(rgb(51, 51, 51), rgb(193, 193, 193)); font-family: &amp;quot;Times New Roman&amp;quot;; font-size: 16px;&quot;&gt;&lt;br&gt;&lt;/span&gt;&lt;/div&gt;&lt;div&gt;&lt;span style=&quot;background-color: transparent; color: light-dark(rgb(51, 51, 51), rgb(193, 193, 193)); font-family: &amp;quot;Times New Roman&amp;quot;; font-size: 16px;&quot;&gt;Dimensioni&lt;/span&gt;&lt;/div&gt;&lt;div&gt;&lt;div&gt;&lt;span style=&quot;font-family: &amp;quot;Times New Roman&amp;quot;; font-size: 16px; background-color: initial;&quot;&gt;Medium&lt;/span&gt;&lt;/div&gt;&lt;/div&gt;&lt;div&gt;&lt;span style=&quot;font-family: &amp;quot;Times New Roman&amp;quot;; font-size: 16px; background-color: initial;&quot;&gt;Peso&lt;/span&gt;&lt;/div&gt;&lt;div&gt;&lt;span style=&quot;font-family: &amp;quot;Times New Roman&amp;quot;; font-size: 16px; background-color: initial;&quot;&gt;&lt;br&gt;&lt;/span&gt;&lt;/div&gt;" style="rounded=1;whiteSpace=wrap;html=1;dashed=1;fillColor=#f5f5f5;fontColor=#333333;strokeColor=#666666;align=left;" parent="BxNZ6aTccqHbWHCgY8v--108" vertex="1">
          <mxGeometry x="64" y="5" width="107.48" height="80" as="geometry" />
        </mxCell>
        <mxCell id="BxNZ6aTccqHbWHCgY8v--167" style="edgeStyle=orthogonalEdgeStyle;shape=connector;curved=0;rounded=1;orthogonalLoop=1;jettySize=auto;html=1;strokeColor=default;strokeWidth=2;align=center;verticalAlign=middle;fontFamily=Helvetica;fontSize=11;fontColor=default;labelBackgroundColor=default;endArrow=none;endFill=0;" parent="BxNZ6aTccqHbWHCgY8v--108" edge="1">
          <mxGeometry relative="1" as="geometry">
            <mxPoint x="47" y="46" as="targetPoint" />
            <mxPoint y="46" as="sourcePoint" />
          </mxGeometry>
        </mxCell>
        <mxCell id="BxNZ6aTccqHbWHCgY8v--168" value="" style="ellipse;whiteSpace=wrap;html=1;aspect=fixed;strokeWidth=2;" parent="BxNZ6aTccqHbWHCgY8v--108" vertex="1">
          <mxGeometry x="45" y="41" width="10" height="10" as="geometry" />
        </mxCell>
        <mxCell id="BxNZ6aTccqHbWHCgY8v--128" style="edgeStyle=orthogonalEdgeStyle;shape=connector;curved=0;rounded=1;orthogonalLoop=1;jettySize=auto;html=1;strokeColor=default;strokeWidth=2;align=center;verticalAlign=middle;fontFamily=Helvetica;fontSize=11;fontColor=default;labelBackgroundColor=default;endArrow=none;endFill=0;" parent="1" edge="1">
          <mxGeometry relative="1" as="geometry">
            <mxPoint x="337" y="741" as="targetPoint" />
            <mxPoint x="384" y="741" as="sourcePoint" />
          </mxGeometry>
        </mxCell>
        <mxCell id="BxNZ6aTccqHbWHCgY8v--129" value="" style="ellipse;whiteSpace=wrap;html=1;aspect=fixed;strokeWidth=2;" parent="1" vertex="1">
          <mxGeometry x="327" y="735.9999999999999" width="10" height="10" as="geometry" />
        </mxCell>
        <mxCell id="BxNZ6aTccqHbWHCgY8v--131" value="" style="endArrow=none;html=1;rounded=0;entryX=0.078;entryY=1.035;entryDx=0;entryDy=0;entryPerimeter=0;exitX=0.5;exitY=0;exitDx=0;exitDy=0;strokeWidth=2;" parent="1" edge="1">
          <mxGeometry width="50" height="50" relative="1" as="geometry">
            <mxPoint x="232.39999999999998" y="979" as="sourcePoint" />
            <mxPoint x="232.00000000000023" y="933" as="targetPoint" />
          </mxGeometry>
        </mxCell>
        <mxCell id="BxNZ6aTccqHbWHCgY8v--132" value="" style="ellipse;whiteSpace=wrap;html=1;aspect=fixed;strokeWidth=2;" parent="1" vertex="1">
          <mxGeometry x="227.0000000000001" y="923" width="10" height="10" as="geometry" />
        </mxCell>
        <mxCell id="BxNZ6aTccqHbWHCgY8v--142" value="&lt;div&gt;Anno_realizzazione&lt;/div&gt;&lt;div&gt;&lt;span style=&quot;background-color: transparent; color: light-dark(rgb(51, 51, 51), rgb(193, 193, 193));&quot;&gt;Descrizione&lt;/span&gt;&lt;/div&gt;&lt;div&gt;&lt;span style=&quot;background-color: transparent; color: light-dark(rgb(51, 51, 51), rgb(193, 193, 193));&quot;&gt;Stanza&lt;/span&gt;&lt;/div&gt;&lt;div&gt;Stato&lt;/div&gt;&lt;div&gt;Autore&lt;/div&gt;&lt;div&gt;Descrizione_Tipologia&lt;/div&gt;" style="rounded=1;whiteSpace=wrap;html=1;dashed=1;fillColor=#f5f5f5;fontColor=#333333;strokeColor=#666666;align=left;" parent="1" vertex="1">
          <mxGeometry x="244.26" y="863" width="125.74" height="105" as="geometry" />
        </mxCell>
        <mxCell id="BxNZ6aTccqHbWHCgY8v--143" value="" style="endArrow=none;html=1;rounded=0;strokeColor=#009900;exitX=0.447;exitY=0.005;exitDx=0;exitDy=0;exitPerimeter=0;entryX=0.5;entryY=1;entryDx=0;entryDy=0;" parent="1" target="BxNZ6aTccqHbWHCgY8v--144" edge="1">
          <mxGeometry width="50" height="50" relative="1" as="geometry">
            <mxPoint x="108.94200000000018" y="979" as="sourcePoint" />
            <mxPoint x="108.92000000000002" y="940" as="targetPoint" />
          </mxGeometry>
        </mxCell>
        <mxCell id="BxNZ6aTccqHbWHCgY8v--144" value="" style="ellipse;whiteSpace=wrap;html=1;aspect=fixed;strokeColor=#009900;gradientColor=none;fillColor=#336600;" parent="1" vertex="1">
          <mxGeometry x="103.99999999999994" y="924" width="10" height="10" as="geometry" />
        </mxCell>
        <mxCell id="BxNZ6aTccqHbWHCgY8v--148" value="&lt;font style=&quot;color: rgb(51, 51, 51); text-align: left; font-size: 16px;&quot; face=&quot;Times New Roman&quot;&gt;&lt;b style=&quot;&quot;&gt;Numero_Opera&lt;/b&gt;&lt;/font&gt;" style="text;html=1;align=center;verticalAlign=middle;whiteSpace=wrap;rounded=0;" parent="1" vertex="1">
          <mxGeometry x="140" y="915" width="60" height="30" as="geometry" />
        </mxCell>
        <mxCell id="BxNZ6aTccqHbWHCgY8v--150" value="" style="endArrow=none;html=1;rounded=0;strokeColor=#009900;exitX=0.447;exitY=0.005;exitDx=0;exitDy=0;exitPerimeter=0;entryX=0.5;entryY=1;entryDx=0;entryDy=0;" parent="1" target="BxNZ6aTccqHbWHCgY8v--151" edge="1">
          <mxGeometry width="50" height="50" relative="1" as="geometry">
            <mxPoint x="410.70200000000017" y="696" as="sourcePoint" />
            <mxPoint x="410.68" y="657" as="targetPoint" />
          </mxGeometry>
        </mxCell>
        <mxCell id="BxNZ6aTccqHbWHCgY8v--151" value="" style="ellipse;whiteSpace=wrap;html=1;aspect=fixed;strokeColor=#009900;gradientColor=none;fillColor=#336600;strokeWidth=2;" parent="1" vertex="1">
          <mxGeometry x="405.75999999999993" y="641" width="10" height="10" as="geometry" />
        </mxCell>
        <mxCell id="BxNZ6aTccqHbWHCgY8v--152" value="&lt;font style=&quot;color: rgb(51, 51, 51); text-align: left; font-size: 16px;&quot; face=&quot;Times New Roman&quot;&gt;&lt;b style=&quot;&quot;&gt;Nome_evento&lt;/b&gt;&lt;/font&gt;" style="text;html=1;align=center;verticalAlign=middle;whiteSpace=wrap;rounded=0;" parent="1" vertex="1">
          <mxGeometry x="441.76" y="632" width="60" height="30" as="geometry" />
        </mxCell>
        <mxCell id="BxNZ6aTccqHbWHCgY8v--109" style="edgeStyle=orthogonalEdgeStyle;shape=connector;curved=0;rounded=1;orthogonalLoop=1;jettySize=auto;html=1;strokeColor=#009900;strokeWidth=2;align=center;verticalAlign=middle;fontFamily=Helvetica;fontSize=11;fontColor=default;labelBackgroundColor=default;endArrow=none;endFill=0;" parent="1" edge="1">
          <mxGeometry relative="1" as="geometry">
            <mxPoint x="1020" y="1055" as="targetPoint" />
            <mxPoint x="973" y="1055" as="sourcePoint" />
          </mxGeometry>
        </mxCell>
        <mxCell id="BxNZ6aTccqHbWHCgY8v--110" value="" style="ellipse;whiteSpace=wrap;html=1;aspect=fixed;fillColor=#006600;strokeColor=#009900;strokeWidth=2;" parent="1" vertex="1">
          <mxGeometry x="1020" y="1050" width="10" height="10" as="geometry" />
        </mxCell>
        <mxCell id="BxNZ6aTccqHbWHCgY8v--155" style="edgeStyle=orthogonalEdgeStyle;shape=connector;curved=0;rounded=1;orthogonalLoop=1;jettySize=auto;html=1;strokeColor=default;strokeWidth=2;align=center;verticalAlign=middle;fontFamily=Helvetica;fontSize=11;fontColor=default;labelBackgroundColor=default;endArrow=none;endFill=0;" parent="1" edge="1">
          <mxGeometry relative="1" as="geometry">
            <mxPoint x="1019.42" y="1084.5" as="targetPoint" />
            <mxPoint x="972.42" y="1084.5" as="sourcePoint" />
          </mxGeometry>
        </mxCell>
        <mxCell id="BxNZ6aTccqHbWHCgY8v--156" value="" style="ellipse;whiteSpace=wrap;html=1;aspect=fixed;strokeWidth=2;" parent="1" vertex="1">
          <mxGeometry x="1019.42" y="1079.5" width="10" height="10" as="geometry" />
        </mxCell>
        <mxCell id="BxNZ6aTccqHbWHCgY8v--157" value="&lt;font style=&quot;color: rgb(51, 51, 51); text-align: left; font-size: 16px;&quot; face=&quot;Times New Roman&quot;&gt;&lt;b style=&quot;&quot;&gt;Nome_esposizione&lt;/b&gt;&lt;/font&gt;" style="text;html=1;align=center;verticalAlign=middle;whiteSpace=wrap;rounded=0;" parent="1" vertex="1">
          <mxGeometry x="1008" y="1020" width="60" height="30" as="geometry" />
        </mxCell>
        <mxCell id="BxNZ6aTccqHbWHCgY8v--158" value="&lt;font style=&quot;color: rgb(51, 51, 51); text-align: left; font-size: 16px;&quot; face=&quot;Times New Roman&quot;&gt;Descrizione&lt;/font&gt;" style="text;html=1;align=center;verticalAlign=middle;whiteSpace=wrap;rounded=0;" parent="1" vertex="1">
          <mxGeometry x="989.42" y="1052.5" width="60" height="32" as="geometry" />
        </mxCell>
        <mxCell id="BxNZ6aTccqHbWHCgY8v--163" style="edgeStyle=orthogonalEdgeStyle;shape=connector;curved=0;rounded=1;orthogonalLoop=1;jettySize=auto;html=1;entryX=0.211;entryY=0.994;entryDx=0;entryDy=0;entryPerimeter=0;strokeColor=default;strokeWidth=2;align=center;verticalAlign=middle;fontFamily=Helvetica;fontSize=11;fontColor=default;labelBackgroundColor=default;endArrow=none;endFill=0;" parent="1" source="P5rdZ5vx_de0cUmey6Gz-61" edge="1">
          <mxGeometry relative="1" as="geometry">
            <mxPoint x="1065.9099999999999" y="1603" as="targetPoint" />
          </mxGeometry>
        </mxCell>
        <mxCell id="BxNZ6aTccqHbWHCgY8v--176" value="" style="group;flipH=1;" parent="1" vertex="1" connectable="0">
          <mxGeometry x="1166.05" y="1537" width="196" height="90" as="geometry" />
        </mxCell>
        <mxCell id="BxNZ6aTccqHbWHCgY8v--177" value="&lt;div&gt;&lt;font face=&quot;Times New Roman&quot;&gt;&lt;span style=&quot;font-size: 16px;&quot;&gt;Nome&lt;/span&gt;&lt;/font&gt;&lt;/div&gt;&lt;div&gt;&lt;font face=&quot;Times New Roman&quot;&gt;&lt;span style=&quot;font-size: 16px;&quot;&gt;Cognome&lt;/span&gt;&lt;/font&gt;&lt;/div&gt;&lt;div&gt;&lt;font face=&quot;Times New Roman&quot;&gt;&lt;span style=&quot;font-size: 16px;&quot;&gt;Data_nascita&lt;/span&gt;&lt;/font&gt;&lt;/div&gt;&lt;div&gt;&lt;font face=&quot;Times New Roman&quot;&gt;&lt;span style=&quot;font-size: 16px;&quot;&gt;E-mail&lt;/span&gt;&lt;/font&gt;&lt;/div&gt;" style="rounded=1;whiteSpace=wrap;html=1;dashed=1;fillColor=#f5f5f5;fontColor=#333333;strokeColor=#666666;align=left;" parent="BxNZ6aTccqHbWHCgY8v--176" vertex="1">
          <mxGeometry x="64" width="116" height="85" as="geometry" />
        </mxCell>
        <mxCell id="BxNZ6aTccqHbWHCgY8v--178" style="edgeStyle=orthogonalEdgeStyle;shape=connector;curved=0;rounded=1;orthogonalLoop=1;jettySize=auto;html=1;strokeColor=default;strokeWidth=2;align=center;verticalAlign=middle;fontFamily=Helvetica;fontSize=11;fontColor=default;labelBackgroundColor=default;endArrow=none;endFill=0;" parent="BxNZ6aTccqHbWHCgY8v--176" edge="1">
          <mxGeometry relative="1" as="geometry">
            <mxPoint x="47" y="46" as="targetPoint" />
            <mxPoint y="46" as="sourcePoint" />
          </mxGeometry>
        </mxCell>
        <mxCell id="BxNZ6aTccqHbWHCgY8v--179" value="" style="ellipse;whiteSpace=wrap;html=1;aspect=fixed;strokeWidth=2;" parent="BxNZ6aTccqHbWHCgY8v--176" vertex="1">
          <mxGeometry x="45" y="41" width="10" height="10" as="geometry" />
        </mxCell>
        <mxCell id="BxNZ6aTccqHbWHCgY8v--196" style="edgeStyle=orthogonalEdgeStyle;shape=connector;curved=0;rounded=1;orthogonalLoop=1;jettySize=auto;html=1;strokeColor=#009900;strokeWidth=2;align=center;verticalAlign=middle;fontFamily=Helvetica;fontSize=11;fontColor=default;labelBackgroundColor=default;endArrow=none;endFill=0;" parent="1" edge="1">
          <mxGeometry relative="1" as="geometry">
            <mxPoint x="1213.05" y="1519" as="targetPoint" />
            <mxPoint x="1166.05" y="1519" as="sourcePoint" />
          </mxGeometry>
        </mxCell>
        <mxCell id="BxNZ6aTccqHbWHCgY8v--197" value="" style="ellipse;whiteSpace=wrap;html=1;aspect=fixed;fillColor=#006600;strokeColor=#009900;strokeWidth=2;" parent="1" vertex="1">
          <mxGeometry x="1213.05" y="1514" width="10" height="10" as="geometry" />
        </mxCell>
        <mxCell id="BxNZ6aTccqHbWHCgY8v--198" value="&lt;font style=&quot;color: rgb(51, 51, 51); text-align: left; font-size: 16px;&quot; face=&quot;Times New Roman&quot;&gt;&lt;b style=&quot;&quot;&gt;CF&lt;/b&gt;&lt;/font&gt;" style="text;html=1;align=center;verticalAlign=middle;whiteSpace=wrap;rounded=0;" parent="1" vertex="1">
          <mxGeometry x="1166.05" y="1489" width="60" height="30" as="geometry" />
        </mxCell>
        <mxCell id="BxNZ6aTccqHbWHCgY8v--227" value="" style="ellipse;whiteSpace=wrap;html=1;aspect=fixed;strokeColor=#009900;gradientColor=none;fillColor=#006600;strokeWidth=2;" parent="1" vertex="1">
          <mxGeometry x="1907.0000000000002" y="1127" width="10" height="10" as="geometry" />
        </mxCell>
        <mxCell id="BxNZ6aTccqHbWHCgY8v--228" style="edgeStyle=orthogonalEdgeStyle;shape=connector;curved=0;rounded=1;orthogonalLoop=1;jettySize=auto;html=1;strokeColor=#009900;strokeWidth=2;align=center;verticalAlign=middle;fontFamily=Helvetica;fontSize=11;fontColor=default;labelBackgroundColor=default;endArrow=none;endFill=0;" parent="1" edge="1">
          <mxGeometry relative="1" as="geometry">
            <mxPoint x="1907" y="1131.84" as="targetPoint" />
            <mxPoint x="1860" y="1131.84" as="sourcePoint" />
          </mxGeometry>
        </mxCell>
        <mxCell id="BxNZ6aTccqHbWHCgY8v--240" style="edgeStyle=orthogonalEdgeStyle;shape=connector;curved=0;rounded=1;orthogonalLoop=1;jettySize=auto;html=1;strokeColor=#009900;strokeWidth=2;align=center;verticalAlign=middle;fontFamily=Helvetica;fontSize=11;fontColor=default;labelBackgroundColor=default;endArrow=none;endFill=0;" parent="1" edge="1">
          <mxGeometry relative="1" as="geometry">
            <mxPoint x="1211.71" y="1830.9999999999998" as="targetPoint" />
            <mxPoint x="1164.71" y="1830.9999999999998" as="sourcePoint" />
          </mxGeometry>
        </mxCell>
        <mxCell id="BxNZ6aTccqHbWHCgY8v--241" value="" style="ellipse;whiteSpace=wrap;html=1;aspect=fixed;fillColor=#006600;strokeColor=#009900;" parent="1" vertex="1">
          <mxGeometry x="1209.71" y="1825.9999999999998" width="10" height="10" as="geometry" />
        </mxCell>
        <mxCell id="BxNZ6aTccqHbWHCgY8v--268" style="edgeStyle=orthogonalEdgeStyle;shape=connector;curved=0;rounded=1;orthogonalLoop=1;jettySize=auto;html=1;entryX=0.192;entryY=0.017;entryDx=0;entryDy=0;entryPerimeter=0;strokeColor=default;strokeWidth=2;align=center;verticalAlign=middle;fontFamily=Helvetica;fontSize=11;fontColor=default;labelBackgroundColor=default;endArrow=none;endFill=0;" parent="1" source="P5rdZ5vx_de0cUmey6Gz-44" target="P5rdZ5vx_de0cUmey6Gz-8" edge="1">
          <mxGeometry relative="1" as="geometry" />
        </mxCell>
        <mxCell id="BxNZ6aTccqHbWHCgY8v--282" value="&lt;font style=&quot;color: rgb(51, 51, 51); text-align: left; font-size: 16px;&quot; face=&quot;Times New Roman&quot;&gt;&lt;b style=&quot;&quot;&gt;Codice_Feedback&lt;/b&gt;&lt;/font&gt;" style="text;html=1;align=center;verticalAlign=middle;whiteSpace=wrap;rounded=0;" parent="1" vertex="1">
          <mxGeometry x="1203.71" y="1794" width="60" height="32" as="geometry" />
        </mxCell>
        <mxCell id="Rmn__w1MElvt7K0cSre3-21" style="edgeStyle=orthogonalEdgeStyle;shape=connector;curved=0;rounded=1;orthogonalLoop=1;jettySize=auto;html=1;entryX=0.5;entryY=0;entryDx=0;entryDy=0;strokeColor=default;strokeWidth=2;align=center;verticalAlign=middle;fontFamily=Helvetica;fontSize=12;fontColor=default;labelBackgroundColor=default;endArrow=none;endFill=0;" parent="1" source="Rmn__w1MElvt7K0cSre3-19" target="P5rdZ5vx_de0cUmey6Gz-6" edge="1">
          <mxGeometry relative="1" as="geometry" />
        </mxCell>
        <mxCell id="Rmn__w1MElvt7K0cSre3-22" style="edgeStyle=orthogonalEdgeStyle;shape=connector;curved=0;rounded=1;orthogonalLoop=1;jettySize=auto;html=1;entryX=0;entryY=0.5;entryDx=0;entryDy=0;strokeColor=default;strokeWidth=2;align=center;verticalAlign=middle;fontFamily=Helvetica;fontSize=12;fontColor=default;labelBackgroundColor=default;endArrow=none;endFill=0;" parent="1" source="Rmn__w1MElvt7K0cSre3-19" target="P5rdZ5vx_de0cUmey6Gz-38" edge="1">
          <mxGeometry relative="1" as="geometry" />
        </mxCell>
        <mxCell id="Rmn__w1MElvt7K0cSre3-19" value="&lt;font style=&quot;font-size: 25px;&quot; face=&quot;Garamond&quot;&gt;&lt;b style=&quot;&quot;&gt;Comprende&lt;/b&gt;&lt;/font&gt;" style="rhombus;whiteSpace=wrap;html=1;rounded=1;shadow=1;strokeWidth=1;fillColor=#ffe6cc;strokeColor=#d79b00;" parent="1" vertex="1">
          <mxGeometry x="1283.45" y="1030" width="148.58" height="82" as="geometry" />
        </mxCell>
        <mxCell id="BxNZ6aTccqHbWHCgY8v--170" value="&lt;div&gt;&lt;font face=&quot;Times New Roman&quot;&gt;&lt;span style=&quot;font-size: 16px;&quot;&gt;Nominativo&lt;/span&gt;&lt;/font&gt;&lt;/div&gt;&lt;div&gt;&lt;span style=&quot;background-color: transparent; color: light-dark(rgb(51, 51, 51), rgb(193, 193, 193)); font-family: &amp;quot;Times New Roman&amp;quot;; font-size: 16px;&quot;&gt;Data&lt;/span&gt;&lt;/div&gt;&lt;div&gt;&lt;font face=&quot;Times New Roman&quot;&gt;&lt;span style=&quot;font-size: 16px;&quot;&gt;Data_Acquisto&lt;/span&gt;&lt;/font&gt;&lt;/div&gt;" style="rounded=1;whiteSpace=wrap;html=1;dashed=1;fillColor=#f5f5f5;fontColor=#333333;strokeColor=#666666;align=left;" parent="1" vertex="1">
          <mxGeometry x="1304" y="1258" width="136" height="80" as="geometry" />
        </mxCell>
        <mxCell id="BxNZ6aTccqHbWHCgY8v--171" style="edgeStyle=orthogonalEdgeStyle;shape=connector;curved=0;rounded=1;orthogonalLoop=1;jettySize=auto;html=1;strokeColor=default;strokeWidth=2;align=center;verticalAlign=middle;fontFamily=Helvetica;fontSize=11;fontColor=default;labelBackgroundColor=default;endArrow=none;endFill=0;" parent="1" edge="1">
          <mxGeometry relative="1" as="geometry">
            <mxPoint x="1287" y="1299" as="targetPoint" />
            <mxPoint x="1240" y="1299" as="sourcePoint" />
          </mxGeometry>
        </mxCell>
        <mxCell id="BxNZ6aTccqHbWHCgY8v--172" value="" style="ellipse;whiteSpace=wrap;html=1;aspect=fixed;strokeWidth=2;" parent="1" vertex="1">
          <mxGeometry x="1285" y="1294" width="10" height="10" as="geometry" />
        </mxCell>
        <mxCell id="BxNZ6aTccqHbWHCgY8v--244" style="edgeStyle=orthogonalEdgeStyle;shape=connector;curved=0;rounded=1;orthogonalLoop=1;jettySize=auto;html=1;strokeColor=#009900;strokeWidth=2;align=center;verticalAlign=middle;fontFamily=Helvetica;fontSize=11;fontColor=default;labelBackgroundColor=default;endArrow=none;endFill=0;" parent="1" edge="1">
          <mxGeometry relative="1" as="geometry">
            <mxPoint x="1287" y="1232" as="targetPoint" />
            <mxPoint x="1240" y="1232" as="sourcePoint" />
          </mxGeometry>
        </mxCell>
        <mxCell id="BxNZ6aTccqHbWHCgY8v--245" value="" style="ellipse;whiteSpace=wrap;html=1;aspect=fixed;fillColor=#006600;strokeColor=#009900;strokeWidth=2;" parent="1" vertex="1">
          <mxGeometry x="1287" y="1227" width="10" height="10" as="geometry" />
        </mxCell>
        <mxCell id="BxNZ6aTccqHbWHCgY8v--246" value="&lt;font style=&quot;color: rgb(51, 51, 51); text-align: left; font-size: 16px;&quot; face=&quot;Times New Roman&quot;&gt;&lt;b style=&quot;&quot;&gt;Codice_Seriale&lt;/b&gt;&lt;/font&gt;" style="text;html=1;align=center;verticalAlign=middle;whiteSpace=wrap;rounded=0;" parent="1" vertex="1">
          <mxGeometry x="1268.05" y="1197" width="60" height="30" as="geometry" />
        </mxCell>
        <mxCell id="oXSpO9kbpZbX1wjSZ2se-41" style="edgeStyle=orthogonalEdgeStyle;shape=connector;curved=0;rounded=1;orthogonalLoop=1;jettySize=auto;html=1;entryX=0.5;entryY=0;entryDx=0;entryDy=0;strokeColor=default;strokeWidth=2;align=center;verticalAlign=middle;fontFamily=Helvetica;fontSize=11;fontColor=default;labelBackgroundColor=default;endArrow=none;endFill=0;" parent="1" source="oXSpO9kbpZbX1wjSZ2se-2" target="oXSpO9kbpZbX1wjSZ2se-12" edge="1">
          <mxGeometry relative="1" as="geometry" />
        </mxCell>
        <mxCell id="oXSpO9kbpZbX1wjSZ2se-2" value="&lt;font style=&quot;font-size: 25px;&quot; face=&quot;Garamond&quot;&gt;&lt;b style=&quot;&quot;&gt;Include&lt;/b&gt;&lt;/font&gt;" style="rhombus;whiteSpace=wrap;html=1;rounded=1;shadow=1;strokeWidth=1;fillColor=#ffe6cc;strokeColor=#d79b00;" parent="1" vertex="1">
          <mxGeometry x="1283.45" y="1420" width="148.58" height="82" as="geometry" />
        </mxCell>
        <mxCell id="oXSpO9kbpZbX1wjSZ2se-6" value="&lt;div style=&quot;text-align: left;&quot;&gt;&lt;span style=&quot;background-color: initial; font-size: 16px;&quot;&gt;&lt;font face=&quot;Times New Roman&quot; color=&quot;#333333&quot;&gt;&lt;b&gt;Nome_Visita&lt;/b&gt;&lt;/font&gt;&lt;/span&gt;&lt;/div&gt;" style="text;html=1;align=center;verticalAlign=middle;whiteSpace=wrap;rounded=0;" parent="1" vertex="1">
          <mxGeometry x="1890" y="1100" width="60" height="30" as="geometry" />
        </mxCell>
        <mxCell id="oXSpO9kbpZbX1wjSZ2se-9" style="edgeStyle=orthogonalEdgeStyle;shape=connector;curved=0;rounded=1;orthogonalLoop=1;jettySize=auto;html=1;entryX=0.889;entryY=0.996;entryDx=0;entryDy=0;entryPerimeter=0;strokeColor=default;strokeWidth=2;align=center;verticalAlign=middle;fontFamily=Helvetica;fontSize=11;fontColor=default;labelBackgroundColor=default;endArrow=none;endFill=0;exitX=0;exitY=0.5;exitDx=0;exitDy=0;" parent="1" source="oXSpO9kbpZbX1wjSZ2se-2" edge="1">
          <mxGeometry relative="1" as="geometry">
            <mxPoint x="1345.0000000000005" y="1460.9999999999995" as="sourcePoint" />
            <mxPoint x="1192.7999999999997" y="1326.48" as="targetPoint" />
          </mxGeometry>
        </mxCell>
        <mxCell id="oXSpO9kbpZbX1wjSZ2se-12" value="&lt;p&gt;&lt;font style=&quot;font-size: 30px;&quot; face=&quot;Times New Roman&quot;&gt;Tariffa&lt;/font&gt;&lt;/p&gt;" style="rounded=1;whiteSpace=wrap;html=1;shadow=1;fillColor=#d5e8d4;strokeColor=#82b366;" parent="1" vertex="1">
          <mxGeometry x="1440" y="1583.03" width="245.71" height="157.75" as="geometry" />
        </mxCell>
        <mxCell id="oXSpO9kbpZbX1wjSZ2se-13" style="edgeStyle=orthogonalEdgeStyle;shape=connector;curved=0;rounded=1;orthogonalLoop=1;jettySize=auto;html=1;strokeColor=#009900;strokeWidth=2;align=center;verticalAlign=middle;fontFamily=Helvetica;fontSize=11;fontColor=default;labelBackgroundColor=default;endArrow=none;endFill=0;" parent="1" edge="1">
          <mxGeometry relative="1" as="geometry">
            <mxPoint x="1733.4" y="1626.7" as="targetPoint" />
            <mxPoint x="1686.4" y="1626.7" as="sourcePoint" />
          </mxGeometry>
        </mxCell>
        <mxCell id="oXSpO9kbpZbX1wjSZ2se-14" style="edgeStyle=orthogonalEdgeStyle;shape=connector;curved=0;rounded=1;orthogonalLoop=1;jettySize=auto;html=1;strokeColor=#000000;strokeWidth=2;align=center;verticalAlign=middle;fontFamily=Helvetica;fontSize=11;fontColor=default;labelBackgroundColor=default;endArrow=none;endFill=0;" parent="1" edge="1">
          <mxGeometry relative="1" as="geometry">
            <mxPoint x="1732.5500000000002" y="1692.7" as="targetPoint" />
            <mxPoint x="1685.5500000000002" y="1692.7" as="sourcePoint" />
          </mxGeometry>
        </mxCell>
        <mxCell id="oXSpO9kbpZbX1wjSZ2se-15" value="" style="ellipse;whiteSpace=wrap;html=1;aspect=fixed;fillColor=#FFFFFF;strokeColor=#000000;strokeWidth=2;" parent="1" vertex="1">
          <mxGeometry x="1732.5500000000002" y="1688.03" width="10" height="10" as="geometry" />
        </mxCell>
        <mxCell id="oXSpO9kbpZbX1wjSZ2se-16" value="" style="ellipse;whiteSpace=wrap;html=1;aspect=fixed;fillColor=#006600;strokeColor=#009900;strokeWidth=2;" parent="1" vertex="1">
          <mxGeometry x="1732.5500000000002" y="1621.8999999999999" width="10" height="10" as="geometry" />
        </mxCell>
        <mxCell id="oXSpO9kbpZbX1wjSZ2se-17" value="&lt;font style=&quot;color: rgb(51, 51, 51); text-align: left; font-size: 16px;&quot; face=&quot;Times New Roman&quot;&gt;&lt;b style=&quot;&quot;&gt;ID_Tariffa&lt;/b&gt;&lt;/font&gt;" style="text;html=1;align=center;verticalAlign=middle;whiteSpace=wrap;rounded=0;" parent="1" vertex="1">
          <mxGeometry x="1725.7400000000002" y="1590.03" width="60" height="30" as="geometry" />
        </mxCell>
        <mxCell id="oXSpO9kbpZbX1wjSZ2se-18" value="&lt;font style=&quot;color: rgb(51, 51, 51); text-align: left; font-size: 16px;&quot; face=&quot;Times New Roman&quot;&gt;Prezzo_unità&lt;/font&gt;" style="text;html=1;align=center;verticalAlign=middle;whiteSpace=wrap;rounded=0;" parent="1" vertex="1">
          <mxGeometry x="1732.5500000000002" y="1658.03" width="60" height="30" as="geometry" />
        </mxCell>
        <mxCell id="oXSpO9kbpZbX1wjSZ2se-19" style="edgeStyle=orthogonalEdgeStyle;shape=connector;curved=0;rounded=1;orthogonalLoop=1;jettySize=auto;html=1;strokeColor=#009900;strokeWidth=2;align=center;verticalAlign=middle;fontFamily=Helvetica;fontSize=11;fontColor=default;labelBackgroundColor=default;endArrow=none;endFill=0;" parent="1" edge="1">
          <mxGeometry relative="1" as="geometry">
            <mxPoint x="1705.7400000000002" y="1720.91" as="targetPoint" />
            <mxPoint x="1705.5500000000002" y="1721.8999999999996" as="sourcePoint" />
          </mxGeometry>
        </mxCell>
        <mxCell id="oXSpO9kbpZbX1wjSZ2se-27" value="&lt;p&gt;&lt;font style=&quot;font-size: 30px;&quot; face=&quot;Times New Roman&quot;&gt;Guida&lt;/font&gt;&lt;/p&gt;" style="rounded=1;whiteSpace=wrap;html=1;shadow=1;fillColor=#d5e8d4;strokeColor=#82b366;" parent="1" vertex="1">
          <mxGeometry x="1620" y="1370" width="200" height="130" as="geometry" />
        </mxCell>
        <mxCell id="oXSpO9kbpZbX1wjSZ2se-29" style="edgeStyle=orthogonalEdgeStyle;shape=connector;curved=0;rounded=1;orthogonalLoop=1;jettySize=auto;html=1;entryX=0.5;entryY=0;entryDx=0;entryDy=0;strokeColor=default;strokeWidth=2;align=center;verticalAlign=middle;fontFamily=Helvetica;fontSize=11;fontColor=default;labelBackgroundColor=default;endArrow=none;endFill=0;" parent="1" source="oXSpO9kbpZbX1wjSZ2se-28" target="oXSpO9kbpZbX1wjSZ2se-27" edge="1">
          <mxGeometry relative="1" as="geometry" />
        </mxCell>
        <mxCell id="oXSpO9kbpZbX1wjSZ2se-28" value="&lt;font style=&quot;font-size: 25px;&quot; face=&quot;Garamond&quot;&gt;&lt;b style=&quot;&quot;&gt;Conduce&lt;/b&gt;&lt;/font&gt;" style="rhombus;whiteSpace=wrap;html=1;rounded=1;shadow=1;strokeWidth=1;fillColor=#ffe6cc;strokeColor=#d79b00;" parent="1" vertex="1">
          <mxGeometry x="1645.71" y="1227" width="148.58" height="82" as="geometry" />
        </mxCell>
        <mxCell id="oXSpO9kbpZbX1wjSZ2se-30" value="" style="ellipse;whiteSpace=wrap;html=1;aspect=fixed;strokeColor=#009900;gradientColor=none;fillColor=#006600;strokeWidth=2;" parent="1" vertex="1">
          <mxGeometry x="1867.0000000000002" y="1400" width="10" height="10" as="geometry" />
        </mxCell>
        <mxCell id="oXSpO9kbpZbX1wjSZ2se-31" style="edgeStyle=orthogonalEdgeStyle;shape=connector;curved=0;rounded=1;orthogonalLoop=1;jettySize=auto;html=1;strokeColor=#009900;strokeWidth=2;align=center;verticalAlign=middle;fontFamily=Helvetica;fontSize=11;fontColor=default;labelBackgroundColor=default;endArrow=none;endFill=0;" parent="1" edge="1">
          <mxGeometry relative="1" as="geometry">
            <mxPoint x="1867" y="1404.84" as="targetPoint" />
            <mxPoint x="1820" y="1404.84" as="sourcePoint" />
          </mxGeometry>
        </mxCell>
        <mxCell id="oXSpO9kbpZbX1wjSZ2se-32" value="&lt;div style=&quot;text-align: left;&quot;&gt;&lt;span style=&quot;background-color: initial; font-size: 16px;&quot;&gt;&lt;font face=&quot;Times New Roman&quot; color=&quot;#333333&quot;&gt;CF&lt;/font&gt;&lt;/span&gt;&lt;/div&gt;" style="text;html=1;align=center;verticalAlign=middle;whiteSpace=wrap;rounded=0;" parent="1" vertex="1">
          <mxGeometry x="1842" y="1370" width="60" height="30" as="geometry" />
        </mxCell>
        <mxCell id="oXSpO9kbpZbX1wjSZ2se-36" value="&lt;div style=&quot;text-align: left;&quot;&gt;&lt;span style=&quot;background-color: initial; font-size: 16px;&quot;&gt;&lt;font face=&quot;Times New Roman&quot; color=&quot;#333333&quot;&gt;&lt;b&gt;Lingua&lt;/b&gt;&lt;/font&gt;&lt;/span&gt;&lt;/div&gt;" style="text;html=1;align=center;verticalAlign=middle;whiteSpace=wrap;rounded=0;" parent="1" vertex="1">
          <mxGeometry x="1882" y="1025" width="60" height="30" as="geometry" />
        </mxCell>
        <mxCell id="oXSpO9kbpZbX1wjSZ2se-37" value="" style="group;flipH=1;" parent="1" vertex="1" connectable="0">
          <mxGeometry x="1820" y="1420" width="196" height="90" as="geometry" />
        </mxCell>
        <mxCell id="oXSpO9kbpZbX1wjSZ2se-38" value="&lt;div&gt;&lt;font face=&quot;Times New Roman&quot;&gt;&lt;span style=&quot;font-size: 16px;&quot;&gt;Nome&lt;/span&gt;&lt;/font&gt;&lt;/div&gt;&lt;div&gt;&lt;font face=&quot;Times New Roman&quot;&gt;&lt;span style=&quot;font-size: 16px;&quot;&gt;Cognome&lt;/span&gt;&lt;/font&gt;&lt;/div&gt;&lt;div&gt;&lt;font face=&quot;Times New Roman&quot;&gt;&lt;span style=&quot;font-size: 16px;&quot;&gt;Telefono&lt;/span&gt;&lt;/font&gt;&lt;/div&gt;&lt;div&gt;&lt;font face=&quot;Times New Roman&quot;&gt;&lt;span style=&quot;font-size: 16px;&quot;&gt;Data_nascita&lt;/span&gt;&lt;/font&gt;&lt;/div&gt;" style="rounded=1;whiteSpace=wrap;html=1;dashed=1;fillColor=#f5f5f5;fontColor=#333333;strokeColor=#666666;align=left;" parent="oXSpO9kbpZbX1wjSZ2se-37" vertex="1">
          <mxGeometry x="64" width="116" height="85" as="geometry" />
        </mxCell>
        <mxCell id="oXSpO9kbpZbX1wjSZ2se-39" style="edgeStyle=orthogonalEdgeStyle;shape=connector;curved=0;rounded=1;orthogonalLoop=1;jettySize=auto;html=1;strokeColor=default;strokeWidth=2;align=center;verticalAlign=middle;fontFamily=Helvetica;fontSize=11;fontColor=default;labelBackgroundColor=default;endArrow=none;endFill=0;" parent="oXSpO9kbpZbX1wjSZ2se-37" edge="1">
          <mxGeometry relative="1" as="geometry">
            <mxPoint x="47" y="46" as="targetPoint" />
            <mxPoint y="46" as="sourcePoint" />
          </mxGeometry>
        </mxCell>
        <mxCell id="oXSpO9kbpZbX1wjSZ2se-40" value="" style="ellipse;whiteSpace=wrap;html=1;aspect=fixed;strokeWidth=2;" parent="oXSpO9kbpZbX1wjSZ2se-37" vertex="1">
          <mxGeometry x="45" y="41" width="10" height="10" as="geometry" />
        </mxCell>
        <mxCell id="WmHuBo-tkSmD1Zb7HrEz-2" value="&lt;font&gt;(1,N)&lt;/font&gt;" style="text;html=1;align=center;verticalAlign=middle;resizable=0;points=[];autosize=1;strokeColor=none;fillColor=none;fontSize=20;" parent="1" vertex="1">
          <mxGeometry x="-330.26" y="923" width="70" height="40" as="geometry" />
        </mxCell>
        <mxCell id="WmHuBo-tkSmD1Zb7HrEz-4" value="&lt;font&gt;(1,N)&lt;/font&gt;" style="text;html=1;align=center;verticalAlign=middle;resizable=0;points=[];autosize=1;strokeColor=none;fillColor=none;fontSize=20;" parent="1" vertex="1">
          <mxGeometry x="22" y="1017" width="70" height="40" as="geometry" />
        </mxCell>
        <mxCell id="WmHuBo-tkSmD1Zb7HrEz-5" value="&lt;font&gt;(1,N)&lt;/font&gt;" style="text;html=1;align=center;verticalAlign=middle;resizable=0;points=[];autosize=1;strokeColor=none;fillColor=none;fontSize=20;" parent="1" vertex="1">
          <mxGeometry x="-352" y="1197" width="70" height="40" as="geometry" />
        </mxCell>
        <mxCell id="WmHuBo-tkSmD1Zb7HrEz-6" value="&lt;font&gt;(1,1)&lt;/font&gt;" style="text;html=1;align=center;verticalAlign=middle;resizable=0;points=[];autosize=1;strokeColor=none;fillColor=none;fontSize=20;" parent="1" vertex="1">
          <mxGeometry x="24" y="1089" width="60" height="40" as="geometry" />
        </mxCell>
        <mxCell id="WmHuBo-tkSmD1Zb7HrEz-7" value="&lt;font&gt;(0,1)&lt;/font&gt;" style="text;html=1;align=center;verticalAlign=middle;resizable=0;points=[];autosize=1;strokeColor=none;fillColor=none;fontSize=20;" parent="1" vertex="1">
          <mxGeometry x="310" y="1041" width="60" height="40" as="geometry" />
        </mxCell>
        <mxCell id="WmHuBo-tkSmD1Zb7HrEz-8" value="&lt;font&gt;(1,N)&lt;/font&gt;" style="text;html=1;align=center;verticalAlign=middle;resizable=0;points=[];autosize=1;strokeColor=none;fillColor=none;fontSize=20;" parent="1" vertex="1">
          <mxGeometry x="587.4200000000001" y="1042" width="70" height="40" as="geometry" />
        </mxCell>
        <mxCell id="WmHuBo-tkSmD1Zb7HrEz-9" value="&lt;font&gt;(1, N)&lt;/font&gt;" style="text;html=1;align=center;verticalAlign=middle;resizable=0;points=[];autosize=1;strokeColor=none;fillColor=none;fontSize=20;" parent="1" vertex="1">
          <mxGeometry x="565" y="801" width="70" height="40" as="geometry" />
        </mxCell>
        <mxCell id="WmHuBo-tkSmD1Zb7HrEz-10" value="&lt;font&gt;(0, N)&lt;/font&gt;" style="text;html=1;align=center;verticalAlign=middle;resizable=0;points=[];autosize=1;strokeColor=none;fillColor=none;fontSize=20;" parent="1" vertex="1">
          <mxGeometry x="710" y="998" width="70" height="40" as="geometry" />
        </mxCell>
        <mxCell id="WmHuBo-tkSmD1Zb7HrEz-11" value="&lt;font&gt;(1, N)&lt;/font&gt;" style="text;html=1;align=center;verticalAlign=middle;resizable=0;points=[];autosize=1;strokeColor=none;fillColor=none;fontSize=20;" parent="1" vertex="1">
          <mxGeometry x="810" y="1124" width="70" height="40" as="geometry" />
        </mxCell>
        <mxCell id="WmHuBo-tkSmD1Zb7HrEz-12" value="&lt;font&gt;(1, N)&lt;/font&gt;" style="text;html=1;align=center;verticalAlign=middle;resizable=0;points=[];autosize=1;strokeColor=none;fillColor=none;fontSize=20;" parent="1" vertex="1">
          <mxGeometry x="971" y="1225" width="70" height="40" as="geometry" />
        </mxCell>
        <mxCell id="WmHuBo-tkSmD1Zb7HrEz-15" value="(0, 1)" style="text;html=1;align=center;verticalAlign=middle;resizable=0;points=[];autosize=1;strokeColor=none;fillColor=none;fontSize=20;" parent="1" vertex="1">
          <mxGeometry x="1133.71" y="1161.11" width="70" height="40" as="geometry" />
        </mxCell>
        <mxCell id="WmHuBo-tkSmD1Zb7HrEz-16" value="(1, N)" style="text;html=1;align=center;verticalAlign=middle;resizable=0;points=[];autosize=1;strokeColor=none;fillColor=none;fontSize=20;" parent="1" vertex="1">
          <mxGeometry x="1513" y="1035" width="70" height="40" as="geometry" />
        </mxCell>
        <mxCell id="WmHuBo-tkSmD1Zb7HrEz-20" value="&lt;div style=&quot;text-align: left;&quot;&gt;&lt;span style=&quot;background-color: initial; font-size: 16px;&quot;&gt;&lt;font face=&quot;Times New Roman&quot; color=&quot;#333333&quot;&gt;&lt;b&gt;Orario&lt;/b&gt;&lt;/font&gt;&lt;/span&gt;&lt;/div&gt;" style="text;html=1;align=center;verticalAlign=middle;whiteSpace=wrap;rounded=0;" parent="1" vertex="1">
          <mxGeometry x="1883" y="1064" width="60" height="30" as="geometry" />
        </mxCell>
        <mxCell id="WmHuBo-tkSmD1Zb7HrEz-27" style="edgeStyle=orthogonalEdgeStyle;shape=connector;curved=0;rounded=1;orthogonalLoop=1;jettySize=auto;html=1;strokeColor=default;strokeWidth=2;align=center;verticalAlign=middle;fontFamily=Helvetica;fontSize=11;fontColor=default;labelBackgroundColor=default;endArrow=none;endFill=0;" parent="1" edge="1">
          <mxGeometry relative="1" as="geometry">
            <mxPoint x="1907" y="1025.6" as="targetPoint" />
            <mxPoint x="1860" y="1025.6" as="sourcePoint" />
          </mxGeometry>
        </mxCell>
        <mxCell id="WmHuBo-tkSmD1Zb7HrEz-28" value="" style="ellipse;whiteSpace=wrap;html=1;aspect=fixed;strokeWidth=2;" parent="1" vertex="1">
          <mxGeometry x="1905" y="1020" width="10" height="10" as="geometry" />
        </mxCell>
        <mxCell id="WmHuBo-tkSmD1Zb7HrEz-29" value="&lt;div style=&quot;text-align: left;&quot;&gt;&lt;span style=&quot;background-color: initial; font-size: 16px;&quot;&gt;&lt;font face=&quot;Times New Roman&quot; color=&quot;#333333&quot;&gt;Surplus&lt;/font&gt;&lt;/span&gt;&lt;/div&gt;" style="text;html=1;align=center;verticalAlign=middle;whiteSpace=wrap;rounded=0;" parent="1" vertex="1">
          <mxGeometry x="1882" y="990" width="60" height="30" as="geometry" />
        </mxCell>
        <mxCell id="WmHuBo-tkSmD1Zb7HrEz-30" value="" style="ellipse;whiteSpace=wrap;html=1;aspect=fixed;strokeColor=#009900;gradientColor=none;fillColor=#006600;strokeWidth=2;" parent="1" vertex="1">
          <mxGeometry x="1907.0000000000002" y="1090" width="10" height="10" as="geometry" />
        </mxCell>
        <mxCell id="WmHuBo-tkSmD1Zb7HrEz-31" style="edgeStyle=orthogonalEdgeStyle;shape=connector;curved=0;rounded=1;orthogonalLoop=1;jettySize=auto;html=1;strokeColor=#009900;strokeWidth=2;align=center;verticalAlign=middle;fontFamily=Helvetica;fontSize=11;fontColor=default;labelBackgroundColor=default;endArrow=none;endFill=0;" parent="1" edge="1">
          <mxGeometry relative="1" as="geometry">
            <mxPoint x="1907" y="1094.84" as="targetPoint" />
            <mxPoint x="1860" y="1094.84" as="sourcePoint" />
          </mxGeometry>
        </mxCell>
        <mxCell id="WmHuBo-tkSmD1Zb7HrEz-32" value="" style="edgeStyle=orthogonalEdgeStyle;shape=connector;curved=0;rounded=1;orthogonalLoop=1;jettySize=auto;html=1;strokeColor=#009900;strokeWidth=2;align=center;verticalAlign=middle;fontFamily=Helvetica;fontSize=11;fontColor=default;labelBackgroundColor=default;endArrow=none;endFill=0;" parent="1" target="WmHuBo-tkSmD1Zb7HrEz-33" edge="1">
          <mxGeometry relative="1" as="geometry">
            <mxPoint x="1872.19" y="1183.0100000000002" as="targetPoint" />
            <mxPoint x="1872" y="1040" as="sourcePoint" />
          </mxGeometry>
        </mxCell>
        <mxCell id="WmHuBo-tkSmD1Zb7HrEz-33" value="" style="ellipse;whiteSpace=wrap;html=1;aspect=fixed;strokeColor=#009900;gradientColor=none;fillColor=#006600;strokeWidth=2;" parent="1" vertex="1">
          <mxGeometry x="1867.0000000000005" y="1161.11" width="10" height="10" as="geometry" />
        </mxCell>
        <mxCell id="WmHuBo-tkSmD1Zb7HrEz-34" value="" style="ellipse;whiteSpace=wrap;html=1;aspect=fixed;strokeColor=#009900;gradientColor=none;fillColor=#006600;strokeWidth=2;" parent="1" vertex="1">
          <mxGeometry x="1907.0000000000002" y="1090" width="10" height="10" as="geometry" />
        </mxCell>
        <mxCell id="WmHuBo-tkSmD1Zb7HrEz-35" style="edgeStyle=orthogonalEdgeStyle;shape=connector;curved=0;rounded=1;orthogonalLoop=1;jettySize=auto;html=1;strokeColor=#009900;strokeWidth=2;align=center;verticalAlign=middle;fontFamily=Helvetica;fontSize=11;fontColor=default;labelBackgroundColor=default;endArrow=none;endFill=0;" parent="1" edge="1">
          <mxGeometry relative="1" as="geometry">
            <mxPoint x="1907" y="1094.84" as="targetPoint" />
            <mxPoint x="1860" y="1094.84" as="sourcePoint" />
          </mxGeometry>
        </mxCell>
        <mxCell id="WmHuBo-tkSmD1Zb7HrEz-36" value="" style="ellipse;whiteSpace=wrap;html=1;aspect=fixed;strokeColor=#009900;gradientColor=none;fillColor=#006600;strokeWidth=2;" parent="1" vertex="1">
          <mxGeometry x="1907.0000000000002" y="1051" width="10" height="10" as="geometry" />
        </mxCell>
        <mxCell id="WmHuBo-tkSmD1Zb7HrEz-37" style="edgeStyle=orthogonalEdgeStyle;shape=connector;curved=0;rounded=1;orthogonalLoop=1;jettySize=auto;html=1;strokeColor=#009900;strokeWidth=2;align=center;verticalAlign=middle;fontFamily=Helvetica;fontSize=11;fontColor=default;labelBackgroundColor=default;endArrow=none;endFill=0;" parent="1" edge="1">
          <mxGeometry relative="1" as="geometry">
            <mxPoint x="1907" y="1055.84" as="targetPoint" />
            <mxPoint x="1860" y="1055.84" as="sourcePoint" />
          </mxGeometry>
        </mxCell>
        <mxCell id="WmHuBo-tkSmD1Zb7HrEz-39" value="(1, 1)" style="text;html=1;align=center;verticalAlign=middle;resizable=0;points=[];autosize=1;strokeColor=none;fillColor=none;fontSize=20;" parent="1" vertex="1">
          <mxGeometry x="1713.8899999999999" y="1154" width="70" height="40" as="geometry" />
        </mxCell>
        <mxCell id="WmHuBo-tkSmD1Zb7HrEz-40" value="(0, N)" style="text;html=1;align=center;verticalAlign=middle;resizable=0;points=[];autosize=1;strokeColor=none;fillColor=none;fontSize=20;" parent="1" vertex="1">
          <mxGeometry x="1713.8899999999999" y="1334" width="70" height="40" as="geometry" />
        </mxCell>
        <mxCell id="WmHuBo-tkSmD1Zb7HrEz-41" value="&lt;font&gt;(0, N)&lt;/font&gt;" style="text;html=1;align=center;verticalAlign=middle;resizable=0;points=[];autosize=1;strokeColor=none;fillColor=none;fontSize=20;" parent="1" vertex="1">
          <mxGeometry x="1060" y="1452" width="70" height="40" as="geometry" />
        </mxCell>
        <mxCell id="WmHuBo-tkSmD1Zb7HrEz-42" value="&lt;font&gt;(1, 1)&lt;/font&gt;" style="text;html=1;align=center;verticalAlign=middle;resizable=0;points=[];autosize=1;strokeColor=none;fillColor=none;fontSize=20;" parent="1" vertex="1">
          <mxGeometry x="1060" y="1320.5" width="70" height="40" as="geometry" />
        </mxCell>
        <mxCell id="WmHuBo-tkSmD1Zb7HrEz-44" value="&lt;font&gt;(0, N)&lt;/font&gt;" style="text;html=1;align=center;verticalAlign=middle;resizable=0;points=[];autosize=1;strokeColor=none;fillColor=none;fontSize=20;" parent="1" vertex="1">
          <mxGeometry x="1060" y="1598" width="70" height="40" as="geometry" />
        </mxCell>
        <mxCell id="WmHuBo-tkSmD1Zb7HrEz-45" value="&lt;font&gt;(1, 1)&lt;/font&gt;" style="text;html=1;align=center;verticalAlign=middle;resizable=0;points=[];autosize=1;strokeColor=none;fillColor=none;fontSize=20;" parent="1" vertex="1">
          <mxGeometry x="1060" y="1775" width="70" height="40" as="geometry" />
        </mxCell>
        <mxCell id="WmHuBo-tkSmD1Zb7HrEz-46" value="(1, 1)" style="text;html=1;align=center;verticalAlign=middle;resizable=0;points=[];autosize=1;strokeColor=none;fillColor=none;fontSize=20;" parent="1" vertex="1">
          <mxGeometry x="1184.05" y="1318.5" width="70" height="40" as="geometry" />
        </mxCell>
        <mxCell id="WmHuBo-tkSmD1Zb7HrEz-48" value="(0, N)" style="text;html=1;align=center;verticalAlign=middle;resizable=0;points=[];autosize=1;strokeColor=none;fillColor=none;fontSize=20;" parent="1" vertex="1">
          <mxGeometry x="1556.66" y="1550.03" width="70" height="40" as="geometry" />
        </mxCell>
        <mxCell id="txovSVEfyR3AI5xxml6h-1" value="&lt;div&gt;&lt;span style=&quot;background-color: transparent; color: light-dark(rgb(51, 51, 51), rgb(193, 193, 193));&quot;&gt;&lt;br&gt;&lt;/span&gt;&lt;/div&gt;&lt;div&gt;&lt;span style=&quot;background-color: transparent; color: light-dark(rgb(51, 51, 51), rgb(193, 193, 193));&quot;&gt;Tipo (conferenza, workshop..)&lt;br&gt;&lt;/span&gt;&lt;/div&gt;&lt;div&gt;&lt;div&gt;Data_inizio&lt;/div&gt;&lt;div&gt;Data_fine&lt;/div&gt;&lt;div&gt;&lt;br&gt;&lt;/div&gt;&lt;/div&gt;" style="rounded=1;whiteSpace=wrap;html=1;dashed=1;fillColor=#f5f5f5;fontColor=#333333;strokeColor=#666666;align=left;" parent="1" vertex="1">
          <mxGeometry x="200" y="690" width="120.48" height="70" as="geometry" />
        </mxCell>
        <mxCell id="cytRLMpRpHsTSRFWsmpL-1" value="&lt;div&gt;&lt;font face=&quot;Times New Roman&quot;&gt;&lt;span style=&quot;font-size: 16px;&quot;&gt;Valutazione&lt;/span&gt;&lt;/font&gt;&lt;/div&gt;&lt;div&gt;&lt;font face=&quot;Times New Roman&quot;&gt;&lt;span style=&quot;font-size: 16px;&quot;&gt;Commento&lt;/span&gt;&lt;/font&gt;&lt;/div&gt;" style="rounded=1;whiteSpace=wrap;html=1;dashed=1;fillColor=#f5f5f5;fontColor=#333333;strokeColor=#666666;align=left;" parent="1" vertex="1">
          <mxGeometry x="1230" y="1840" width="88.29" height="54" as="geometry" />
        </mxCell>
        <mxCell id="cytRLMpRpHsTSRFWsmpL-2" value="" style="ellipse;whiteSpace=wrap;html=1;aspect=fixed;strokeWidth=2;" parent="1" vertex="1">
          <mxGeometry x="1212" y="1862" width="10" height="10" as="geometry" />
        </mxCell>
        <mxCell id="cytRLMpRpHsTSRFWsmpL-3" style="edgeStyle=orthogonalEdgeStyle;shape=connector;curved=0;rounded=1;orthogonalLoop=1;jettySize=auto;html=1;strokeColor=default;strokeWidth=2;align=center;verticalAlign=middle;fontFamily=Helvetica;fontSize=11;fontColor=default;labelBackgroundColor=default;endArrow=none;endFill=0;" parent="1" edge="1">
          <mxGeometry relative="1" as="geometry">
            <mxPoint x="1213" y="1867" as="targetPoint" />
            <mxPoint x="1166" y="1867" as="sourcePoint" />
          </mxGeometry>
        </mxCell>
        <mxCell id="cytRLMpRpHsTSRFWsmpL-13" value="&lt;font style=&quot;color: rgb(51, 51, 51); text-align: left; font-size: 16px;&quot; face=&quot;Times New Roman&quot;&gt;Data_Invio&lt;/font&gt;" style="text;html=1;align=center;verticalAlign=middle;whiteSpace=wrap;rounded=0;" parent="1" vertex="1">
          <mxGeometry x="952" y="1633" width="60" height="30" as="geometry" />
        </mxCell>
        <mxCell id="cytRLMpRpHsTSRFWsmpL-14" value="" style="endArrow=none;html=1;rounded=0;entryX=0.078;entryY=1.035;entryDx=0;entryDy=0;entryPerimeter=0;exitX=0.5;exitY=0;exitDx=0;exitDy=0;strokeWidth=2;" parent="1" edge="1">
          <mxGeometry width="50" height="50" relative="1" as="geometry">
            <mxPoint x="1025.4" y="1687.9" as="sourcePoint" />
            <mxPoint x="1025.0000000000002" y="1641.9" as="targetPoint" />
          </mxGeometry>
        </mxCell>
        <mxCell id="cytRLMpRpHsTSRFWsmpL-15" value="" style="ellipse;whiteSpace=wrap;html=1;aspect=fixed;strokeWidth=2;" parent="1" vertex="1">
          <mxGeometry x="1020" y="1631.9" width="10" height="10" as="geometry" />
        </mxCell>
        <mxCell id="cytRLMpRpHsTSRFWsmpL-16" value="&lt;p&gt;&lt;font style=&quot;font-size: 30px;&quot; face=&quot;Times New Roman&quot;&gt;Sponsor&lt;/font&gt;&lt;/p&gt;" style="rounded=1;whiteSpace=wrap;html=1;shadow=1;fillColor=#d5e8d4;strokeColor=#82b366;" parent="1" vertex="1">
          <mxGeometry x="1040" y="864.9999999999999" width="190" height="90" as="geometry" />
        </mxCell>
        <mxCell id="cytRLMpRpHsTSRFWsmpL-20" style="edgeStyle=orthogonalEdgeStyle;shape=connector;curved=0;rounded=1;orthogonalLoop=1;jettySize=auto;html=1;entryX=1;entryY=0.5;entryDx=0;entryDy=0;strokeColor=default;strokeWidth=2;align=center;verticalAlign=middle;fontFamily=Helvetica;fontSize=12;fontColor=default;labelBackgroundColor=default;endArrow=none;endFill=0;" parent="1" source="cytRLMpRpHsTSRFWsmpL-17" target="P5rdZ5vx_de0cUmey6Gz-20" edge="1">
          <mxGeometry relative="1" as="geometry" />
        </mxCell>
        <mxCell id="cytRLMpRpHsTSRFWsmpL-22" style="edgeStyle=orthogonalEdgeStyle;shape=connector;curved=0;rounded=1;orthogonalLoop=1;jettySize=auto;html=1;entryX=0.5;entryY=0;entryDx=0;entryDy=0;strokeColor=default;strokeWidth=2;align=center;verticalAlign=middle;fontFamily=Helvetica;fontSize=12;fontColor=default;labelBackgroundColor=default;endArrow=none;endFill=0;" parent="1" source="cytRLMpRpHsTSRFWsmpL-17" target="cytRLMpRpHsTSRFWsmpL-16" edge="1">
          <mxGeometry relative="1" as="geometry" />
        </mxCell>
        <mxCell id="cytRLMpRpHsTSRFWsmpL-17" value="&lt;font style=&quot;font-size: 25px;&quot; face=&quot;Garamond&quot;&gt;&lt;b style=&quot;&quot;&gt;Finanzia&lt;/b&gt;&lt;/font&gt;" style="rhombus;whiteSpace=wrap;html=1;rounded=1;shadow=1;strokeWidth=1;fillColor=#ffe6cc;strokeColor=#d79b00;" parent="1" vertex="1">
          <mxGeometry x="880" y="700" width="148.58" height="82" as="geometry" />
        </mxCell>
        <mxCell id="cytRLMpRpHsTSRFWsmpL-23" value="" style="endArrow=none;html=1;rounded=0;entryX=0.078;entryY=1.035;entryDx=0;entryDy=0;entryPerimeter=0;exitX=0.5;exitY=0;exitDx=0;exitDy=0;strokeWidth=2;" parent="1" edge="1">
          <mxGeometry width="50" height="50" relative="1" as="geometry">
            <mxPoint x="986.5799999999999" y="718" as="sourcePoint" />
            <mxPoint x="986.1800000000002" y="672" as="targetPoint" />
          </mxGeometry>
        </mxCell>
        <mxCell id="cytRLMpRpHsTSRFWsmpL-24" value="" style="ellipse;whiteSpace=wrap;html=1;aspect=fixed;strokeWidth=2;" parent="1" vertex="1">
          <mxGeometry x="981.1800000000001" y="662" width="10" height="10" as="geometry" />
        </mxCell>
        <mxCell id="cytRLMpRpHsTSRFWsmpL-25" value="&lt;div&gt;&lt;span style=&quot;background-color: transparent; color: light-dark(rgb(51, 51, 51), rgb(193, 193, 193)); font-family: &amp;quot;Times New Roman&amp;quot;; font-size: 16px;&quot;&gt;Importo&lt;/span&gt;&lt;/div&gt;&lt;div&gt;&lt;font face=&quot;Times New Roman&quot;&gt;&lt;span style=&quot;font-size: 16px;&quot;&gt;Data_Finanziamento&lt;/span&gt;&lt;/font&gt;&lt;/div&gt;" style="rounded=1;whiteSpace=wrap;html=1;dashed=1;fillColor=#f5f5f5;fontColor=#333333;strokeColor=#666666;align=left;" parent="1" vertex="1">
          <mxGeometry x="1004.29" y="630" width="145.71" height="50" as="geometry" />
        </mxCell>
        <mxCell id="cytRLMpRpHsTSRFWsmpL-26" style="edgeStyle=orthogonalEdgeStyle;shape=connector;curved=0;rounded=1;orthogonalLoop=1;jettySize=auto;html=1;strokeColor=#009900;strokeWidth=2;align=center;verticalAlign=middle;fontFamily=Helvetica;fontSize=11;fontColor=default;labelBackgroundColor=default;endArrow=none;endFill=0;" parent="1" edge="1">
          <mxGeometry relative="1" as="geometry">
            <mxPoint x="1277" y="895" as="targetPoint" />
            <mxPoint x="1230" y="895" as="sourcePoint" />
          </mxGeometry>
        </mxCell>
        <mxCell id="cytRLMpRpHsTSRFWsmpL-27" value="" style="ellipse;whiteSpace=wrap;html=1;aspect=fixed;fillColor=#006600;strokeColor=#009900;strokeWidth=2;" parent="1" vertex="1">
          <mxGeometry x="1277" y="890" width="10" height="10" as="geometry" />
        </mxCell>
        <mxCell id="cytRLMpRpHsTSRFWsmpL-30" value="&lt;font style=&quot;color: rgb(51, 51, 51); text-align: left; font-size: 16px;&quot; face=&quot;Times New Roman&quot;&gt;&lt;b style=&quot;&quot;&gt;Partita IVA&lt;/b&gt;&lt;/font&gt;" style="text;html=1;align=center;verticalAlign=middle;whiteSpace=wrap;rounded=0;" parent="1" vertex="1">
          <mxGeometry x="1235.5" y="863" width="93" height="30" as="geometry" />
        </mxCell>
        <mxCell id="cytRLMpRpHsTSRFWsmpL-34" style="edgeStyle=orthogonalEdgeStyle;shape=connector;curved=0;rounded=1;orthogonalLoop=1;jettySize=auto;html=1;strokeColor=default;strokeWidth=2;align=center;verticalAlign=middle;fontFamily=Helvetica;fontSize=11;fontColor=default;labelBackgroundColor=default;endArrow=none;endFill=0;" parent="1" edge="1">
          <mxGeometry relative="1" as="geometry">
            <mxPoint x="1277" y="938" as="targetPoint" />
            <mxPoint x="1230" y="938" as="sourcePoint" />
          </mxGeometry>
        </mxCell>
        <mxCell id="cytRLMpRpHsTSRFWsmpL-35" value="" style="ellipse;whiteSpace=wrap;html=1;aspect=fixed;strokeWidth=2;" parent="1" vertex="1">
          <mxGeometry x="1277" y="933" width="10" height="10" as="geometry" />
        </mxCell>
        <mxCell id="cytRLMpRpHsTSRFWsmpL-36" value="&lt;div&gt;&lt;font face=&quot;Times New Roman&quot;&gt;&lt;span style=&quot;font-size: 16px;&quot;&gt;Nome&lt;/span&gt;&lt;/font&gt;&lt;/div&gt;&lt;div&gt;&lt;font face=&quot;Times New Roman&quot;&gt;&lt;span style=&quot;font-size: 16px;&quot;&gt;E-mail&lt;/span&gt;&lt;/font&gt;&lt;/div&gt;" style="rounded=1;whiteSpace=wrap;html=1;dashed=1;fillColor=#f5f5f5;fontColor=#333333;strokeColor=#666666;align=left;" parent="1" vertex="1">
          <mxGeometry x="1295" y="915" width="60" height="45" as="geometry" />
        </mxCell>
        <mxCell id="cytRLMpRpHsTSRFWsmpL-38" value="&lt;font&gt;(0, N)&lt;/font&gt;" style="text;html=1;align=center;verticalAlign=middle;resizable=0;points=[];autosize=1;strokeColor=none;fillColor=none;fontSize=20;" parent="1" vertex="1">
          <mxGeometry x="754" y="706" width="70" height="40" as="geometry" />
        </mxCell>
        <mxCell id="cytRLMpRpHsTSRFWsmpL-39" value="&lt;font&gt;(0, N)&lt;/font&gt;" style="text;html=1;align=center;verticalAlign=middle;resizable=0;points=[];autosize=1;strokeColor=none;fillColor=none;fontSize=20;" parent="1" vertex="1">
          <mxGeometry x="1133.71" y="827" width="70" height="40" as="geometry" />
        </mxCell>
        <mxCell id="t9T4e12LYRa4ub_H8aDF-1" style="edgeStyle=orthogonalEdgeStyle;shape=connector;curved=0;rounded=1;orthogonalLoop=1;jettySize=auto;html=1;strokeColor=default;strokeWidth=2;align=center;verticalAlign=middle;fontFamily=Helvetica;fontSize=11;fontColor=default;labelBackgroundColor=default;endArrow=none;endFill=0;" edge="1" parent="1">
          <mxGeometry relative="1" as="geometry">
            <mxPoint x="1019.4200000000001" y="1116.5" as="targetPoint" />
            <mxPoint x="972.42" y="1116.5" as="sourcePoint" />
          </mxGeometry>
        </mxCell>
        <mxCell id="t9T4e12LYRa4ub_H8aDF-2" value="" style="ellipse;whiteSpace=wrap;html=1;aspect=fixed;strokeWidth=2;" vertex="1" parent="1">
          <mxGeometry x="1019.4200000000001" y="1111.5" width="10" height="10" as="geometry" />
        </mxCell>
        <mxCell id="t9T4e12LYRa4ub_H8aDF-3" value="&lt;font style=&quot;color: rgb(51, 51, 51); text-align: left; font-size: 16px;&quot; face=&quot;Times New Roman&quot;&gt;Libera&lt;/font&gt;" style="text;html=1;align=center;verticalAlign=middle;whiteSpace=wrap;rounded=0;" vertex="1" parent="1">
          <mxGeometry x="985.42" y="1084.5" width="60" height="32" as="geometry" />
        </mxCell>
      </root>
    </mxGraphModel>
  </diagram>
</mxfile>
